# Blender 4.3.2
# www.blender.org
mtllib rock_8.mtl
o rock_8
v 4.800000 0.400000 1.900000
v 5.700000 0.400000 1.900000
v 4.600000 0.400000 1.800000
v 4.800000 0.400000 1.800000
v 5.700000 0.400000 1.400000
v 5.700000 0.500000 1.500000
v 5.600000 0.400000 1.400000
v 4.600000 0.400000 1.200000
v 4.400000 0.400000 1.200000
v 4.400000 0.500000 1.200000
v 4.600000 0.500000 1.200000
v 5.600000 0.500000 1.000000
v 5.700000 0.500000 1.000000
v 5.600000 0.400000 1.000000
v 5.700000 0.400000 1.000000
v 5.700000 0.500000 0.800000
v 4.400000 0.500000 0.400000
v 4.400000 0.400000 0.400000
v 4.600000 0.500000 0.400000
v 5.600000 0.400000 0.400000
v 5.700000 0.400000 0.400000
v 4.800000 0.400000 0.400000
v 5.300000 0.400000 0.300000
v 5.600000 0.400000 0.300000
v 4.800000 0.400000 0.200000
v 5.300000 0.400000 0.200000
v 5.800000 0.500000 1.500000
v 5.600000 0.500000 1.400000
v 5.700000 0.500000 1.400000
v 5.800000 0.500000 0.800000
v 4.800000 0.700000 1.900000
v 5.300000 0.700000 1.800000
v 5.300000 0.700000 1.900000
v 4.800000 0.700000 1.800000
v 5.700000 0.800000 1.500000
v 5.800000 0.800000 1.500000
v 5.800000 0.800000 0.900000
v 5.800000 0.800000 0.800000
v 5.300000 0.900000 1.900000
v 5.700000 0.900000 1.900000
v 5.800000 0.800000 1.600000
v 5.700000 0.800000 1.600000
v 5.700000 0.800000 0.900000
v 5.700000 0.800000 0.800000
v 5.300000 0.900000 1.800000
v 5.600000 0.900000 1.800000
v 5.600000 0.900000 1.600000
v 5.700000 0.900000 1.600000
v 4.900000 1.000000 0.800000
v 4.600000 1.000000 0.400000
v 4.800000 1.000000 0.400000
v 4.900000 1.000000 0.300000
v 4.800000 1.000000 0.200000
v 5.300000 1.000000 0.200000
v 4.600000 1.100000 1.800000
v 4.800000 1.100000 1.800000
v 4.800000 1.100000 1.100000
v 4.600000 1.100000 0.900000
v 4.600000 1.000000 0.900000
v 5.000000 1.000000 0.900000
v 5.000000 1.000000 0.800000
v 5.700000 1.100000 0.500000
v 5.700000 1.100000 0.400000
v 5.300000 1.000000 0.300000
v 5.600000 1.100000 0.400000
v 4.800000 1.200000 1.800000
v 5.600000 1.200000 1.800000
v 5.600000 1.200000 1.600000
v 4.800000 1.200000 1.100000
v 5.000000 1.200000 1.100000
v 5.000000 1.100000 1.100000
v 5.000000 1.100000 0.900000
v 5.600000 1.100000 0.500000
v 5.200000 1.300000 1.600000
v 5.300000 1.300000 1.500000
v 5.200000 1.200000 1.600000
v 5.800000 1.300000 1.600000
v 5.200000 1.300000 1.400000
v 5.100000 1.200000 1.300000
v 5.200000 1.200000 1.300000
v 5.100000 1.200000 1.100000
v 5.800000 1.300000 0.900000
v 5.700000 1.300000 0.900000
v 5.300000 1.300000 1.400000
v 5.300000 1.400000 1.500000
v 5.700000 1.300000 1.500000
v 5.700000 1.400000 1.500000
v 5.200000 1.400000 1.300000
v 5.200000 1.400000 1.400000
v 5.300000 1.400000 1.400000
v 5.100000 1.400000 1.300000
v 5.000000 1.400000 1.100000
v 5.100000 1.400000 1.100000
v 5.000000 1.400000 0.800000
v 5.700000 1.400000 0.800000
v 5.700000 1.400000 0.500000
v 5.600000 1.400000 0.500000
v 5.300000 1.400000 1.300000
v 5.700000 1.400000 1.300000
v 5.600000 1.400000 0.800000
v 4.900000 1.500000 0.800000
v 5.300000 1.500000 0.800000
v 5.300000 1.400000 0.800000
v 5.300000 1.500000 0.500000
v 5.600000 1.500000 0.500000
v 4.900000 1.500000 0.300000
v 5.600000 1.500000 0.300000
v 5.300000 1.600000 1.300000
v 5.700000 1.600000 1.300000
v 5.700000 1.600000 0.800000
v 5.600000 1.600000 0.800000
v 5.300000 1.600000 0.500000
v 5.600000 1.600000 0.500000
vn -1.0000 -0.0000 -0.0000
vn -0.0000 1.0000 -0.0000
vn -0.0000 -0.0000 -1.0000
vn 1.0000 -0.0000 -0.0000
vn -0.0000 -0.0000 1.0000
vn -0.0000 -1.0000 -0.0000
vt 0.187500 0.531250
vt 0.062500 0.546875
vt 0.187500 0.546875
vt 0.484375 0.250000
vt 0.546875 0.328125
vt 0.531250 0.328125
vt 0.109375 0.437500
vt 0.140625 0.453125
vt 0.140625 0.437500
vt 0.281250 0.593750
vt 0.265625 0.500000
vt 0.281250 0.500000
vt 0.468750 0.406250
vt 0.484375 0.468750
vt 0.453125 0.468750
vt 0.156250 0.343750
vt 0.218750 0.375000
vt 0.203125 0.421875
vt 0.468750 0.281250
vt 0.484375 0.281250
vt 0.421875 0.562500
vt 0.359375 0.578125
vt 0.359375 0.562500
vt 0.578125 0.468750
vt 0.546875 0.484375
vt 0.578125 0.562500
vt 0.203125 0.140625
vt 0.328125 0.125000
vt 0.281250 0.125000
vt 0.421875 0.046875
vt 0.437500 0.062500
vt 0.437500 0.046875
vt 0.546875 0.156250
vt 0.578125 0.281250
vt 0.546875 0.281250
vt 0.515625 0.156250
vt 0.593750 0.078125
vt 0.515625 0.078125
vt 0.203125 0.109375
vt 0.343750 0.093750
vt 0.296875 0.015625
vt 0.312500 0.562500
vt 0.328125 0.578125
vt 0.328125 0.546875
vt 0.156250 0.312500
vt 0.171875 0.265625
vt 0.156250 0.265625
vt 0.140625 0.281250
vt 0.093750 0.265625
vt 0.234375 0.140625
vt 0.218750 0.156250
vt 0.218750 0.140625
vt 0.406250 0.484375
vt 0.296875 0.468750
vt 0.296875 0.484375
vt 0.140625 0.562500
vt 0.140625 0.546875
vt 0.437500 0.015625
vt 0.421875 0.000000
vt 0.515625 0.000000
vt 0.187500 0.484375
vt 0.171875 0.453125
vt 0.187500 0.453125
vt 0.468750 0.250000
vt 0.500000 0.218750
vt 0.531250 0.250000
vt 0.421875 0.093750
vt 0.468750 0.078125
vt 0.421875 0.078125
vt 0.359375 0.531250
vt 0.281250 0.484375
vt 0.421875 0.484375
vt 0.125000 0.390625
vt 0.093750 0.406250
vt 0.421875 0.234375
vt 0.453125 0.328125
vt 0.453125 0.234375
vt 0.093750 0.375000
vt 0.078125 0.390625
vt 0.078125 0.375000
vt 0.218750 0.187500
vt 0.203125 0.187500
vt 0.593750 0.578125
vt 0.578125 0.578125
vt 0.109375 0.328125
vt 0.156250 0.375000
vt 0.031250 0.359375
vt 0.546875 0.234375
vt 0.531250 0.156250
vt 0.531250 0.234375
vt 0.250000 0.437500
vt 0.250000 0.453125
vt 0.218750 0.484375
vt 0.343750 0.250000
vt 0.359375 0.234375
vt 0.343750 0.234375
vt 0.031250 0.109375
vt 0.187500 0.234375
vt 0.187500 0.140625
vt 0.156250 0.328125
vt 0.171875 0.312500
vt 0.062500 0.484375
vt 0.046875 0.500000
vt 0.046875 0.484375
vt 0.359375 0.156250
vt 0.468750 0.109375
vt 0.453125 0.156250
vt 0.375000 0.453125
vt 0.312500 0.421875
vt 0.375000 0.421875
vt 0.046875 0.468750
vt 0.031250 0.484375
vt 0.031250 0.453125
vt 0.218750 0.531250
vt 0.187500 0.578125
vt 0.468750 0.234375
vt 0.578125 0.296875
vt 0.578125 0.359375
vt 0.593750 0.281250
vt 0.312500 0.390625
vt 0.281250 0.406250
vt 0.281250 0.390625
vt 0.375000 0.343750
vt 0.421875 0.421875
vt 0.562500 0.468750
vt 0.484375 0.375000
vt 0.562500 0.062500
vt 0.562500 0.078125
vt 0.156250 0.468750
vt 0.156250 0.453125
vt 0.171875 0.531250
vt 0.484375 0.531250
vt 0.531250 0.562500
vt 0.421875 0.359375
vt 0.437500 0.328125
vt 0.421875 0.328125
vt 0.343750 0.109375
vt 0.328125 0.109375
vt 0.296875 0.343750
vt 0.296875 0.390625
vt 0.187500 0.515625
vt 0.171875 0.484375
vt 0.171875 0.515625
vt 0.406250 0.453125
vt 0.484375 0.578125
vt 0.484375 0.562500
vt 0.281250 0.218750
vt 0.343750 0.156250
vt 0.281250 0.312500
vt 0.062500 0.562500
vt 0.000000 0.578125
vt 0.000000 0.562500
vt 0.000000 0.546875
vt 0.015625 0.468750
vt 0.015625 0.531250
vt 0.000000 0.046875
vt 0.015625 0.000000
vt 0.015625 0.046875
vt 0.062500 0.531250
vt 0.531250 0.375000
vt 0.546875 0.250000
vt 0.109375 0.453125
vt 0.265625 0.593750
vt 0.453125 0.453125
vt 0.453125 0.406250
vt 0.468750 0.296875
vt 0.484375 0.296875
vt 0.453125 0.484375
vt 0.203125 0.453125
vt 0.281250 0.343750
vt 0.281250 0.375000
vt 0.218750 0.421875
vt 0.421875 0.578125
vt 0.515625 0.468750
vt 0.515625 0.484375
vt 0.546875 0.562500
vt 0.281250 0.109375
vt 0.328125 0.140625
vt 0.421875 0.062500
vt 0.578125 0.156250
vt 0.593750 0.156250
vt 0.296875 0.000000
vt 0.203125 0.000000
vt 0.421875 0.015625
vt 0.281250 0.546875
vt 0.281250 0.562500
vt 0.312500 0.578125
vt 0.140625 0.312500
vt 0.093750 0.281250
vt 0.234375 0.156250
vt 0.406250 0.468750
vt 0.437500 0.031250
vt 0.421875 0.031250
vt 0.515625 0.109375
vt 0.500000 0.109375
vt 0.500000 0.015625
vt 0.531250 0.218750
vt 0.468750 0.093750
vt 0.281250 0.531250
vt 0.140625 0.375000
vt 0.125000 0.375000
vt 0.093750 0.390625
vt 0.093750 0.437500
vt 0.593750 0.468750
vt 0.000000 0.359375
vt 0.000000 0.250000
vt 0.031250 0.250000
vt 0.031250 0.296875
vt 0.109375 0.296875
vt 0.031250 0.375000
vt 0.250000 0.421875
vt 0.312500 0.453125
vt 0.250000 0.531250
vt 0.203125 0.531250
vt 0.203125 0.484375
vt 0.218750 0.453125
vt 0.234375 0.453125
vt 0.234375 0.437500
vt 0.359375 0.250000
vt 0.187500 0.078125
vt 0.203125 0.078125
vt 0.062500 0.000000
vt 0.062500 0.015625
vt 0.031250 0.015625
vt 0.000000 0.109375
vt 0.000000 0.234375
vt 0.062500 0.234375
vt 0.062500 0.265625
vt 0.140625 0.265625
vt 0.140625 0.250000
vt 0.187500 0.250000
vt 0.203125 0.234375
vt 0.171875 0.328125
vt 0.062500 0.500000
vt 0.359375 0.109375
vt 0.468750 0.156250
vt 0.000000 0.375000
vt 0.062500 0.375000
vt 0.062500 0.390625
vt 0.046875 0.390625
vt 0.000000 0.453125
vt 0.109375 0.468750
vt 0.109375 0.484375
vt 0.218750 0.578125
vt 0.453125 0.281250
vt 0.562500 0.296875
vt 0.562500 0.359375
vt 0.578125 0.390625
vt 0.593750 0.390625
vt 0.312500 0.406250
vt 0.421875 0.250000
vt 0.375000 0.250000
vt 0.312500 0.343750
vt 0.562500 0.375000
vt 0.593750 0.000000
vt 0.593750 0.015625
vt 0.578125 0.015625
vt 0.578125 0.062500
vt 0.078125 0.531250
vt 0.078125 0.515625
vt 0.140625 0.515625
vt 0.140625 0.468750
vt 0.484375 0.484375
vt 0.531250 0.531250
vt 0.437500 0.359375
vt 0.343750 0.125000
vt 0.406250 0.421875
vt 0.203125 0.343750
vt 0.203125 0.312500
vt 0.171875 0.296875
vt 0.265625 0.296875
vt 0.265625 0.218750
vt 0.328125 0.265625
vt 0.328125 0.312500
vt 0.343750 0.265625
vt 0.250000 0.171875
vt 0.250000 0.156250
vt 0.281250 0.171875
vt 0.062500 0.578125
vt 0.000000 0.468750
vt 0.000000 0.000000
s 0
usemtl rock_8_Material
f 18/1/1 10/2/1 17/3/1
f 108/4/2 110/5/2 111/6/2
f 57/7/3 70/8/3 71/9/3
f 54/10/4 23/11/4 26/12/4
f 65/13/4 107/14/4 105/15/4
f 66/16/2 76/17/2 79/18/2
f 91/19/5 80/4/5 88/20/5
f 14/21/4 28/22/4 7/23/4
f 22/24/3 19/25/3 51/26/3
f 108/27/1 104/28/1 102/29/1
f 7/30/3 29/31/3 5/32/3
f 10/33/2 19/34/2 17/35/2
f 101/36/1 52/37/1 49/38/1
f 55/39/1 59/40/1 11/41/1
f 78/42/1 88/43/1 80/44/1
f 31/45/1 4/46/1 1/47/1
f 46/48/2 39/49/2 40/47/2
f 37/50/2 44/51/2 43/52/2
f 69/53/1 56/54/1 66/55/1
f 32/56/2 31/2/2 33/57/2
f 75/58/2 74/59/2 77/60/2
f 93/61/5 70/62/5 81/63/5
f 58/64/2 57/65/2 72/66/2
f 112/67/3 105/68/3 104/69/3
f 33/70/5 1/71/5 2/72/5
f 72/73/1 70/74/1 94/9/1
f 22/75/1 53/76/1 25/77/1
f 84/78/5 89/79/5 78/80/5
f 38/81/3 16/27/3 44/82/3
f 63/83/3 20/24/3 65/84/3
f 45/85/5 67/86/5 56/87/5
f 82/88/3 43/89/3 83/90/3
f 90/91/2 98/92/2 93/93/2
f 85/94/1 84/95/1 75/96/1
f 8/97/6 20/98/6 14/99/6
f 35/100/6 41/101/6 42/45/6
f 15/102/5 12/103/5 14/104/5
f 36/105/4 30/106/4 37/107/4
f 109/108/5 98/109/5 99/110/5
f 52/111/2 53/112/2 51/113/2
f 47/114/4 67/115/4 46/1/4
f 96/19/2 100/77/2 95/116/2
f 29/117/6 13/118/6 27/119/6
f 8/120/5 10/121/5 9/122/5
f 64/123/3 106/109/3 107/124/3
f 54/125/3 25/126/3 53/14/3
f 42/127/4 48/128/4 2/60/4
f 48/129/5 42/130/5 77/131/5
f 104/132/2 107/133/2 106/21/2
f 39/134/1 32/135/1 33/136/1
f 62/137/2 65/28/2 73/138/2
f 96/120/3 73/139/3 97/140/3
f 110/141/3 100/142/3 111/143/3
f 93/144/1 79/110/1 91/108/1
f 59/21/3 72/145/3 60/146/3
f 44/147/4 21/148/4 95/149/4
f 86/150/5 85/151/5 75/152/5
f 101/153/5 61/154/5 94/155/5
f 35/156/5 27/157/5 36/158/5
f 18/1/1 9/159/1 10/2/1
f 113/160/2 112/126/2 108/4/2
f 108/4/2 109/161/2 110/5/2
f 111/6/2 113/160/2 108/4/2
f 57/7/3 69/162/3 70/8/3
f 54/10/4 64/163/4 23/11/4
f 111/53/4 100/144/4 97/164/4
f 97/164/4 73/165/4 65/13/4
f 65/13/4 20/166/4 24/167/4
f 105/15/4 113/168/4 111/53/4
f 105/15/4 111/53/4 97/164/4
f 65/13/4 24/167/4 107/14/4
f 105/15/4 97/164/4 65/13/4
f 79/18/2 81/169/2 70/63/2
f 70/63/2 69/130/2 66/16/2
f 66/16/2 67/170/2 68/171/2
f 76/17/2 80/172/2 79/18/2
f 66/16/2 68/171/2 76/17/2
f 79/18/2 70/63/2 66/16/2
f 91/19/5 79/64/5 80/4/5
f 14/21/4 12/173/4 28/22/4
f 22/24/3 18/174/3 17/175/3
f 19/25/3 50/176/3 51/26/3
f 22/24/3 17/175/3 19/25/3
f 103/177/1 98/39/1 108/27/1
f 108/27/1 112/178/1 104/28/1
f 102/29/1 103/177/1 108/27/1
f 7/30/3 28/179/3 29/31/3
f 10/33/2 11/180/2 19/34/2
f 101/36/1 106/181/1 52/37/1
f 8/182/1 3/183/1 55/39/1
f 55/39/1 58/137/1 59/40/1
f 59/40/1 50/67/1 19/184/1
f 11/41/1 8/182/1 55/39/1
f 59/40/1 19/184/1 11/41/1
f 80/44/1 76/185/1 74/186/1
f 78/42/1 89/187/1 88/43/1
f 80/44/1 74/186/1 78/42/1
f 31/45/1 34/101/1 4/46/1
f 40/47/2 48/45/2 47/188/2
f 46/48/2 45/189/2 39/49/2
f 40/47/2 47/188/2 46/48/2
f 37/50/2 38/190/2 44/51/2
f 69/53/1 57/191/1 56/54/1
f 32/56/2 34/150/2 31/2/2
f 75/58/2 84/192/2 78/193/2
f 77/60/2 82/194/2 83/195/2
f 77/60/2 83/195/2 86/196/2
f 75/58/2 78/193/2 74/59/2
f 77/60/2 86/196/2 75/58/2
f 93/61/5 92/142/5 70/62/5
f 58/64/2 55/106/2 56/195/2
f 57/65/2 71/197/2 72/66/2
f 58/64/2 56/195/2 57/65/2
f 112/67/3 113/198/3 105/68/3
f 2/72/5 40/21/5 39/23/5
f 33/70/5 31/199/5 1/71/5
f 2/72/5 39/23/5 33/70/5
f 94/9/1 61/200/1 60/201/1
f 72/73/1 71/202/1 70/74/1
f 94/9/1 60/201/1 72/73/1
f 70/74/1 92/203/1 94/9/1
f 22/75/1 51/136/1 53/76/1
f 84/78/5 90/202/5 89/79/5
f 38/81/3 30/52/3 16/27/3
f 63/83/3 21/204/3 20/24/3
f 55/205/5 3/206/5 4/207/5
f 34/208/5 32/209/5 45/85/5
f 55/205/5 4/207/5 34/208/5
f 67/86/5 66/210/5 56/87/5
f 56/87/5 55/205/5 34/208/5
f 45/85/5 46/100/5 67/86/5
f 56/87/5 34/208/5 45/85/5
f 82/88/3 37/33/3 43/89/3
f 90/91/2 85/211/2 87/109/2
f 87/109/2 99/212/2 98/92/2
f 98/92/2 103/213/2 94/214/2
f 94/214/2 92/215/2 93/93/2
f 93/93/2 91/216/2 88/217/2
f 88/217/2 89/218/2 90/91/2
f 90/91/2 87/109/2 98/92/2
f 98/92/2 94/214/2 93/93/2
f 93/93/2 88/217/2 90/91/2
f 85/94/1 90/219/1 84/95/1
f 7/220/6 5/221/6 2/183/6
f 2/183/6 1/222/6 4/223/6
f 4/223/6 3/224/6 8/97/6
f 8/97/6 9/225/6 18/226/6
f 22/227/6 25/228/6 26/229/6
f 8/97/6 18/226/6 22/227/6
f 2/183/6 4/223/6 8/97/6
f 7/220/6 2/183/6 8/97/6
f 8/97/6 22/227/6 26/229/6
f 23/230/6 24/231/6 20/98/6
f 8/97/6 26/229/6 23/230/6
f 14/99/6 7/220/6 8/97/6
f 21/232/6 15/27/6 14/99/6
f 8/97/6 23/230/6 20/98/6
f 20/98/6 21/232/6 14/99/6
f 35/100/6 36/233/6 41/101/6
f 15/102/5 13/234/5 12/103/5
f 82/77/4 77/96/4 41/148/4
f 36/105/4 27/235/4 30/106/4
f 82/77/4 41/148/4 36/105/4
f 30/106/4 38/236/4 37/107/4
f 37/107/4 82/77/4 36/105/4
f 109/108/5 108/212/5 98/109/5
f 59/237/2 60/238/2 61/239/2
f 59/237/2 61/239/2 49/240/2
f 51/113/2 50/241/2 59/237/2
f 64/242/2 54/243/2 53/112/2
f 59/237/2 49/240/2 52/111/2
f 52/111/2 64/242/2 53/112/2
f 51/113/2 59/237/2 52/111/2
f 47/114/4 68/244/4 67/115/4
f 96/19/2 97/245/2 100/77/2
f 29/117/6 28/246/6 12/247/6
f 13/118/6 16/248/6 30/249/6
f 29/117/6 12/247/6 13/118/6
f 27/119/6 6/34/6 29/117/6
f 13/118/6 30/249/6 27/119/6
f 8/120/5 11/250/5 10/121/5
f 107/124/3 24/251/3 23/252/3
f 64/123/3 52/253/3 106/109/3
f 107/124/3 23/252/3 64/123/3
f 54/125/3 26/254/3 25/126/3
f 2/60/4 5/255/4 29/256/4
f 6/257/4 35/258/4 42/127/4
f 2/60/4 29/256/4 6/257/4
f 48/128/4 40/38/4 2/60/4
f 2/60/4 6/257/4 42/127/4
f 77/131/5 74/259/5 76/260/5
f 68/261/5 47/262/5 48/129/5
f 77/131/5 76/260/5 68/261/5
f 42/130/5 41/62/5 77/131/5
f 77/131/5 68/261/5 48/129/5
f 106/21/2 101/72/2 102/263/2
f 104/132/2 105/264/2 107/133/2
f 106/21/2 102/263/2 104/132/2
f 39/134/1 45/265/1 32/135/1
f 62/137/2 63/266/2 65/28/2
f 96/120/3 62/253/3 73/139/3
f 110/141/3 95/61/3 100/142/3
f 93/144/1 81/267/1 79/110/1
f 59/21/3 58/173/3 72/145/3
f 110/170/4 109/268/4 99/269/4
f 99/269/4 87/101/4 86/270/4
f 83/271/4 43/272/4 44/147/4
f 99/269/4 86/270/4 83/271/4
f 95/149/4 110/170/4 99/269/4
f 62/273/4 96/274/4 95/149/4
f 21/148/4 63/275/4 62/273/4
f 13/276/4 15/277/4 21/148/4
f 16/278/4 13/276/4 21/148/4
f 21/148/4 62/273/4 95/149/4
f 95/149/4 99/269/4 83/271/4
f 44/147/4 16/278/4 21/148/4
f 95/149/4 83/271/4 44/147/4
f 86/150/5 87/279/5 85/151/5
f 103/159/5 102/2/5 101/153/5
f 101/153/5 49/280/5 61/154/5
f 94/155/5 103/159/5 101/153/5
f 35/156/5 6/281/5 27/157/5
