# Blender 4.3.2
# www.blender.org
mtllib water_2.mtl
o water_2
v -3.500001 0.200000 6.000000
v -3.500001 0.100000 6.000000
v 3.500001 0.200000 6.000000
v 3.500001 0.100000 6.000000
v 3.500001 0.100000 1.000000
v 3.500001 0.200000 1.000000
v -3.500001 0.200000 1.000000
v -3.500001 0.100000 1.000000
vn 1.0000 -0.0000 -0.0000
vn -0.0000 -0.0000 1.0000
vn -0.0000 -0.0000 -1.0000
vn -1.0000 -0.0000 -0.0000
vn -0.0000 -1.0000 -0.0000
vn -0.0000 1.0000 -0.0000
vt 0.781250 0.796875
vt 0.390625 0.804688
vt 0.390625 0.796875
vt 0.546875 0.781250
vt 0.000000 0.789062
vt 0.000000 0.781250
vt 0.546875 0.796875
vt 0.546875 0.789062
vt 0.000000 0.804688
vt 0.000000 0.390625
vt 0.546875 0.390625
vt 0.546875 0.000000
vt 0.000000 0.000000
vt 0.781250 0.804688
vt 0.000000 0.796875
s 0
usemtl water_2_Material
f 5/1/1 3/2/1 4/3/1
f 4/4/2 1/5/2 2/6/2
f 8/5/3 6/7/3 5/8/3
f 8/3/4 1/9/4 7/2/4
f 2/10/5 5/4/5 4/11/5
f 3/12/6 7/10/6 1/13/6
f 5/1/1 6/14/1 3/2/1
f 4/4/2 3/8/2 1/5/2
f 8/5/3 7/15/3 6/7/3
f 8/3/4 2/15/4 1/9/4
f 2/10/5 8/6/5 5/4/5
f 3/12/6 6/11/6 7/10/6
