<svg width="80" height="80" viewBox="0 0 80 80" fill="none" xmlns="http://www.w3.org/2000/svg">
<path d="M62.8624 22.85V34.275H47.6124V41.9H62.8624V53.325H66.6624V49.525H70.4874V45.725H74.2874V41.9H78.0874V34.275H74.2874V30.475H70.4874V26.675H66.6624V22.85H62.8624Z" fill="#FFC10B"/>
<path d="M51.4375 53.325H55.2375V68.575H51.4375V53.325Z" fill="#FFC10B"/>
<path d="M51.4375 3.79999H55.2375V22.85H51.4375V3.79999Z" fill="#FFC10B"/>
<path d="M36.1875 76.2V72.375H51.4375V68.575H36.1875V19.05H32.3875V76.2H36.1875Z" fill="#FFC10B"/>
<path d="M20.9625 76.2H32.3875V80H20.9625V76.2Z" fill="#FFC10B"/>
<path d="M24.7625 41.9H28.5625V49.525H24.7625V41.9Z" fill="#FFC10B"/>
<path d="M24.7625 15.25H32.3875V19.05H24.7625V15.25Z" fill="#FFC10B"/>
<path d="M13.3375 72.375H20.9625V76.2H13.3375V72.375Z" fill="#FFC10B"/>
<path d="M17.1375 11.425H24.7625V15.25H17.1375V11.425Z" fill="#FFC10B"/>
<path d="M5.71252 68.575H13.3375V72.375H5.71252V68.575Z" fill="#FFC10B"/>
<path d="M9.53748 7.625H17.1375V11.425H9.53748V7.625Z" fill="#FFC10B"/>
<path d="M5.71248 0V3.8H1.91248V68.575H5.71248V7.625H9.53748V3.8H51.4375V0L5.71248 0Z" fill="#FFC10B"/>
</svg>
