<svg width="80" height="80" viewBox="0 0 80 80" fill="none" xmlns="http://www.w3.org/2000/svg">
<path d="M76.175 24.7625H80V55.2375H76.175V24.7625Z" fill="#FFC10B"/>
<path d="M72.375 55.2375H76.175V59.0375H72.375V55.2375Z" fill="#FFC10B"/>
<path d="M72.375 20.9375H76.175V24.7625H72.375V20.9375Z" fill="#FFC10B"/>
<path d="M68.575 59.0375H72.375V62.8375H68.575V59.0375Z" fill="#FFC10B"/>
<path d="M68.575 32.3625H72.375V47.6125H68.575V32.3625Z" fill="#FFC10B"/>
<path d="M68.575 17.1375H72.375V20.9375H68.575V17.1375Z" fill="#FFC10B"/>
<path d="M64.75 47.6125H68.575V51.4125H64.75V47.6125Z" fill="#FFC10B"/>
<path d="M64.75 28.5625H68.575V32.3625H64.75V28.5625Z" fill="#FFC10B"/>
<path d="M60.95 36.1875H64.75V43.8125H60.95V36.1875Z" fill="#FFC10B"/>
<path d="M53.325 13.3375H57.125V66.6625H53.325V13.3375Z" fill="#FFC10B"/>
<path d="M49.525 66.6625H53.325V70.4625H49.525V66.6625Z" fill="#FFC10B"/>
<path d="M49.525 9.51248H53.325V13.3375H49.525V9.51248Z" fill="#FFC10B"/>
<path d="M38.1 70.4625H49.525V74.2875H38.1V70.4625Z" fill="#FFC10B"/>
<path d="M41.9 55.2375H45.7V59.0375H41.9V55.2375Z" fill="#FFC10B"/>
<path d="M41.9 20.9375H45.7V24.7625H41.9V20.9375Z" fill="#FFC10B"/>
<path d="M38.1 5.71249H49.525V9.51249H38.1V5.71249Z" fill="#FFC10B"/>
<path d="M38.1 24.7625H41.9V55.2375H38.1V24.7625Z" fill="#FFC10B"/>
<path d="M34.275 66.6625H38.1V70.4625H34.275V66.6625Z" fill="#FFC10B"/>
<path d="M34.275 9.51248H38.1V13.3375H34.275V9.51248Z" fill="#FFC10B"/>
<path d="M30.475 62.8375H34.275V66.6625H30.475V62.8375Z" fill="#FFC10B"/>
<path d="M30.475 13.3375H34.275V17.1375H30.475V13.3375Z" fill="#FFC10B"/>
<path d="M26.65 59.0375H30.475V62.8375H26.65V59.0375Z" fill="#FFC10B"/>
<path d="M26.65 17.1375H30.475V20.9375H26.65V17.1375Z" fill="#FFC10B"/>
<path d="M22.85 55.2375H26.65V59.0375H22.85V55.2375Z" fill="#FFC10B"/>
<path d="M22.85 20.9375H26.65V24.7625H22.85V20.9375Z" fill="#FFC10B"/>
<path d="M19.05 51.4125H22.85V55.2375H19.05V51.4125Z" fill="#FFC10B"/>
<path d="M19.05 24.7625H22.85V28.5625H19.05V24.7625Z" fill="#FFC10B"/>
<path d="M19.05 28.5625H3.8V32.3625H0V47.6125H3.8V51.4125H19.05V28.5625ZM11.425 36.1875H7.625V43.8125H3.8V36.1875H7.625V32.3625H11.425V36.1875Z" fill="#FFC10B"/>
</svg>
