<svg width="80" height="80" viewBox="0 0 80 80" fill="none" xmlns="http://www.w3.org/2000/svg">
<g clip-path="url(#clip0_17_116)">
<mask id="path-1-inside-1_17_116" fill="white">
<path d="M76.175 30.475V22.85H72.375V15.25H68.575V11.425H64.75V7.625H57.15V3.825H49.525V0H30.475V3.825H22.85V7.625H15.225V11.425H11.425V15.25H7.625V22.85H3.8V30.475H0V49.525H3.8V57.15H7.625V64.775H11.425V68.575H15.225V72.375H22.85V76.2H30.475V80H49.525V76.2H57.15V72.375H64.75V68.575H68.575V64.775H72.375V57.15H76.175V49.525H80V30.475H76.175ZM45.7 15.25H53.325V19.05H57.15V22.85H60.95V26.675H64.75V34.3H60.95V26.675H57.15V22.85H53.325V19.05H45.7V15.25ZM64.75 41.9V49.525H60.95V53.325H57.15V57.15H53.325V60.95H49.525V64.775H41.9V60.95H49.525V57.15H53.325V53.325H57.15V49.525H60.95V41.9H64.75ZM11.425 26.675V38.1H7.625V26.675H11.425V22.85H15.225V19.05H19.05V15.25H22.85V11.425H26.675V7.625H38.1V11.425H26.675V15.25H22.85V19.05H19.05V22.85H15.225V26.675H11.425ZM38.1 15.25V19.05H30.475V22.85H26.675V26.675H22.85V30.475H19.05V38.1H15.225V30.475H19.05V26.675H22.85V22.85H26.675V19.05H30.475V15.25H38.1ZM34.275 64.775H26.675V60.95H22.85V57.15H19.05V53.325H15.225V45.725H19.05V53.325H22.85V57.15H26.675V60.95H34.275V64.775ZM30.475 45.725V34.3H34.275V30.475H45.7V34.3H49.525V45.725H45.7V49.525H34.275V45.725H30.475ZM72.375 53.325H68.575V57.15H64.75V60.95H60.95V64.775H57.15V68.575H53.325V72.375H41.9V68.575H53.325V64.775H57.15V60.95H60.95V57.15H64.75V53.325H68.575V41.9H72.375V53.325Z"/>
</mask>
<path d="M76.175 30.475V22.85H72.375V15.25H68.575V11.425H64.75V7.625H57.15V3.825H49.525V0H30.475V3.825H22.85V7.625H15.225V11.425H11.425V15.25H7.625V22.85H3.8V30.475H0V49.525H3.8V57.15H7.625V64.775H11.425V68.575H15.225V72.375H22.85V76.2H30.475V80H49.525V76.2H57.15V72.375H64.75V68.575H68.575V64.775H72.375V57.15H76.175V49.525H80V30.475H76.175ZM45.7 15.25H53.325V19.05H57.15V22.85H60.95V26.675H64.75V34.3H60.95V26.675H57.15V22.85H53.325V19.05H45.7V15.25ZM64.75 41.9V49.525H60.95V53.325H57.15V57.15H53.325V60.95H49.525V64.775H41.9V60.95H49.525V57.15H53.325V53.325H57.15V49.525H60.95V41.9H64.75ZM11.425 26.675V38.1H7.625V26.675H11.425V22.85H15.225V19.05H19.05V15.25H22.85V11.425H26.675V7.625H38.1V11.425H26.675V15.25H22.85V19.05H19.05V22.85H15.225V26.675H11.425ZM38.1 15.25V19.05H30.475V22.85H26.675V26.675H22.85V30.475H19.05V38.1H15.225V30.475H19.05V26.675H22.85V22.85H26.675V19.05H30.475V15.25H38.1ZM34.275 64.775H26.675V60.95H22.85V57.15H19.05V53.325H15.225V45.725H19.05V53.325H22.85V57.15H26.675V60.95H34.275V64.775ZM30.475 45.725V34.3H34.275V30.475H45.7V34.3H49.525V45.725H45.7V49.525H34.275V45.725H30.475ZM72.375 53.325H68.575V57.15H64.75V60.95H60.95V64.775H57.15V68.575H53.325V72.375H41.9V68.575H53.325V64.775H57.15V60.95H60.95V57.15H64.75V53.325H68.575V41.9H72.375V53.325Z" fill="#FFC10B"/>
<path d="M76.175 30.475H75.675V30.975H76.175V30.475ZM76.175 22.85H76.675V22.35H76.175V22.85ZM72.375 22.85H71.875V23.35H72.375V22.85ZM72.375 15.25H72.875V14.75H72.375V15.25ZM68.575 15.25H68.075V15.75H68.575V15.25ZM68.575 11.425H69.075V10.925H68.575V11.425ZM64.75 11.425H64.25V11.925H64.75V11.425ZM64.75 7.625H65.25V7.125H64.75V7.625ZM57.15 7.625H56.65V8.125H57.15V7.625ZM57.15 3.825H57.65V3.325H57.15V3.825ZM49.525 3.825H49.025V4.325H49.525V3.825ZM49.525 0H50.025V-0.5H49.525V0ZM30.475 0V-0.5H29.975V0H30.475ZM30.475 3.825V4.325H30.975V3.825H30.475ZM22.85 3.825V3.325H22.35V3.825H22.85ZM22.85 7.625V8.125H23.35V7.625H22.85ZM15.225 7.625V7.125H14.725V7.625H15.225ZM15.225 11.425V11.925H15.725V11.425H15.225ZM11.425 11.425V10.925H10.925V11.425H11.425ZM11.425 15.25V15.75H11.925V15.25H11.425ZM7.625 15.25V14.75H7.125V15.25H7.625ZM7.625 22.85V23.35H8.125V22.85H7.625ZM3.8 22.85V22.35H3.3V22.85H3.8ZM3.8 30.475V30.975H4.3V30.475H3.8ZM0 30.475V29.975H-0.5V30.475H0ZM0 49.525H-0.5V50.025H0V49.525ZM3.8 49.525H4.3V49.025H3.8V49.525ZM3.8 57.15H3.3V57.65H3.8V57.15ZM7.625 57.15H8.125V56.65H7.625V57.15ZM7.625 64.775H7.125V65.275H7.625V64.775ZM11.425 64.775H11.925V64.275H11.425V64.775ZM11.425 68.575H10.925V69.075H11.425V68.575ZM15.225 68.575H15.725V68.075H15.225V68.575ZM15.225 72.375H14.725V72.875H15.225V72.375ZM22.85 72.375H23.35V71.875H22.85V72.375ZM22.85 76.2H22.35V76.7H22.85V76.2ZM30.475 76.2H30.975V75.7H30.475V76.2ZM30.475 80H29.975V80.5H30.475V80ZM49.525 80V80.5H50.025V80H49.525ZM49.525 76.2V75.7H49.025V76.2H49.525ZM57.15 76.2V76.7H57.65V76.2H57.15ZM57.15 72.375V71.875H56.65V72.375H57.15ZM64.75 72.375V72.875H65.25V72.375H64.75ZM64.75 68.575V68.075H64.25V68.575H64.75ZM68.575 68.575V69.075H69.075V68.575H68.575ZM68.575 64.775V64.275H68.075V64.775H68.575ZM72.375 64.775V65.275H72.875V64.775H72.375ZM72.375 57.15V56.65H71.875V57.15H72.375ZM76.175 57.15V57.65H76.675V57.15H76.175ZM76.175 49.525V49.025H75.675V49.525H76.175ZM80 49.525V50.025H80.5V49.525H80ZM80 30.475H80.5V29.975H80V30.475ZM45.7 15.25V14.75H45.2V15.25H45.7ZM53.325 15.25H53.825V14.75H53.325V15.25ZM57.15 19.05H57.65V18.55H57.15V19.05ZM60.95 22.85H61.45V22.35H60.95V22.85ZM64.75 26.675H65.25V26.175H64.75V26.675ZM64.75 34.3V34.8H65.25V34.3H64.75ZM60.95 34.3H60.45V34.8H60.95V34.3ZM57.15 26.675H56.65V27.175H57.15V26.675ZM53.325 22.85H52.825V23.35H53.325V22.85ZM45.7 19.05H45.2V19.55H45.7V19.05ZM64.75 41.9H65.25V41.4H64.75V41.9ZM64.75 49.525V50.025H65.25V49.525H64.75ZM60.95 53.325V53.825H61.45V53.325H60.95ZM57.15 57.15V57.65H57.65V57.15H57.15ZM53.325 60.95V61.45H53.825V60.95H53.325ZM49.525 64.775V65.275H50.025V64.775H49.525ZM41.9 64.775H41.4V65.275H41.9V64.775ZM41.9 60.95V60.45H41.4V60.95H41.9ZM49.525 57.15V56.65H49.025V57.15H49.525ZM53.325 53.325V52.825H52.825V53.325H53.325ZM57.15 49.525V49.025H56.65V49.525H57.15ZM60.95 41.9V41.4H60.45V41.9H60.95ZM11.425 38.1V38.6H11.925V38.1H11.425ZM7.625 38.1H7.125V38.6H7.625V38.1ZM7.625 26.675V26.175H7.125V26.675H7.625ZM11.425 22.85V22.35H10.925V22.85H11.425ZM15.225 19.05V18.55H14.725V19.05H15.225ZM19.05 15.25V14.75H18.55V15.25H19.05ZM22.85 11.425V10.925H22.35V11.425H22.85ZM26.675 7.625V7.125H26.175V7.625H26.675ZM38.1 7.625H38.6V7.125H38.1V7.625ZM38.1 11.425V11.925H38.6V11.425H38.1ZM26.675 15.25V15.75H27.175V15.25H26.675ZM22.85 19.05V19.55H23.35V19.05H22.85ZM19.05 22.85V23.35H19.55V22.85H19.05ZM15.225 26.675V27.175H15.725V26.675H15.225ZM38.1 15.25H38.6V14.75H38.1V15.25ZM38.1 19.05V19.55H38.6V19.05H38.1ZM30.475 22.85V23.35H30.975V22.85H30.475ZM26.675 26.675V27.175H27.175V26.675H26.675ZM22.85 30.475V30.975H23.35V30.475H22.85ZM19.05 38.1V38.6H19.55V38.1H19.05ZM15.225 38.1H14.725V38.6H15.225V38.1ZM15.225 30.475V29.975H14.725V30.475H15.225ZM19.05 26.675V26.175H18.55V26.675H19.05ZM22.85 22.85V22.35H22.35V22.85H22.85ZM26.675 19.05V18.55H26.175V19.05H26.675ZM30.475 15.25V14.75H29.975V15.25H30.475ZM34.275 64.775V65.275H34.775V64.775H34.275ZM26.675 64.775H26.175V65.275H26.675V64.775ZM22.85 60.95H22.35V61.45H22.85V60.95ZM19.05 57.15H18.55V57.65H19.05V57.15ZM15.225 53.325H14.725V53.825H15.225V53.325ZM15.225 45.725V45.225H14.725V45.725H15.225ZM19.05 45.725H19.55V45.225H19.05V45.725ZM22.85 53.325H23.35V52.825H22.85V53.325ZM26.675 57.15H27.175V56.65H26.675V57.15ZM34.275 60.95H34.775V60.45H34.275V60.95ZM30.475 45.725H29.975V46.225H30.475V45.725ZM30.475 34.3V33.8H29.975V34.3H30.475ZM34.275 34.3V34.8H34.775V34.3H34.275ZM34.275 30.475V29.975H33.775V30.475H34.275ZM45.7 30.475H46.2V29.975H45.7V30.475ZM45.7 34.3H45.2V34.8H45.7V34.3ZM49.525 34.3H50.025V33.8H49.525V34.3ZM49.525 45.725V46.225H50.025V45.725H49.525ZM45.7 45.725V45.225H45.2V45.725H45.7ZM45.7 49.525V50.025H46.2V49.525H45.7ZM34.275 49.525H33.775V50.025H34.275V49.525ZM34.275 45.725H34.775V45.225H34.275V45.725ZM72.375 53.325V53.825H72.875V53.325H72.375ZM68.575 57.15V57.65H69.075V57.15H68.575ZM64.75 60.95V61.45H65.25V60.95H64.75ZM60.95 64.775V65.275H61.45V64.775H60.95ZM57.15 68.575V69.075H57.65V68.575H57.15ZM53.325 72.375V72.875H53.825V72.375H53.325ZM41.9 72.375H41.4V72.875H41.9V72.375ZM41.9 68.575V68.075H41.4V68.575H41.9ZM53.325 64.775V64.275H52.825V64.775H53.325ZM57.15 60.95V60.45H56.65V60.95H57.15ZM60.95 57.15V56.65H60.45V57.15H60.95ZM64.75 53.325V52.825H64.25V53.325H64.75ZM68.575 41.9V41.4H68.075V41.9H68.575ZM72.375 41.9H72.875V41.4H72.375V41.9ZM76.675 30.475V22.85H75.675V30.475H76.675ZM76.175 22.35H72.375V23.35H76.175V22.35ZM72.875 22.85V15.25H71.875V22.85H72.875ZM72.375 14.75H68.575V15.75H72.375V14.75ZM69.075 15.25V11.425H68.075V15.25H69.075ZM68.575 10.925H64.75V11.925H68.575V10.925ZM65.25 11.425V7.625H64.25V11.425H65.25ZM64.75 7.125H57.15V8.125H64.75V7.125ZM57.65 7.625V3.825H56.65V7.625H57.65ZM57.15 3.325H49.525V4.325H57.15V3.325ZM50.025 3.825V0H49.025V3.825H50.025ZM49.525 -0.5H30.475V0.5H49.525V-0.5ZM29.975 0V3.825H30.975V0H29.975ZM30.475 3.325H22.85V4.325H30.475V3.325ZM22.35 3.825V7.625H23.35V3.825H22.35ZM22.85 7.125H15.225V8.125H22.85V7.125ZM14.725 7.625V11.425H15.725V7.625H14.725ZM15.225 10.925H11.425V11.925H15.225V10.925ZM10.925 11.425V15.25H11.925V11.425H10.925ZM11.425 14.75H7.625V15.75H11.425V14.75ZM7.125 15.25V22.85H8.125V15.25H7.125ZM7.625 22.35H3.8V23.35H7.625V22.35ZM3.3 22.85V30.475H4.3V22.85H3.3ZM3.8 29.975H0V30.975H3.8V29.975ZM-0.5 30.475V49.525H0.5V30.475H-0.5ZM0 50.025H3.8V49.025H0V50.025ZM3.3 49.525V57.15H4.3V49.525H3.3ZM3.8 57.65H7.625V56.65H3.8V57.65ZM7.125 57.15V64.775H8.125V57.15H7.125ZM7.625 65.275H11.425V64.275H7.625V65.275ZM10.925 64.775V68.575H11.925V64.775H10.925ZM11.425 69.075H15.225V68.075H11.425V69.075ZM14.725 68.575V72.375H15.725V68.575H14.725ZM15.225 72.875H22.85V71.875H15.225V72.875ZM22.35 72.375V76.2H23.35V72.375H22.35ZM22.85 76.7H30.475V75.7H22.85V76.7ZM29.975 76.2V80H30.975V76.2H29.975ZM30.475 80.5H49.525V79.5H30.475V80.5ZM50.025 80V76.2H49.025V80H50.025ZM49.525 76.7H57.15V75.7H49.525V76.7ZM57.65 76.2V72.375H56.65V76.2H57.65ZM57.15 72.875H64.75V71.875H57.15V72.875ZM65.25 72.375V68.575H64.25V72.375H65.25ZM64.75 69.075H68.575V68.075H64.75V69.075ZM69.075 68.575V64.775H68.075V68.575H69.075ZM68.575 65.275H72.375V64.275H68.575V65.275ZM72.875 64.775V57.15H71.875V64.775H72.875ZM72.375 57.65H76.175V56.65H72.375V57.65ZM76.675 57.15V49.525H75.675V57.15H76.675ZM76.175 50.025H80V49.025H76.175V50.025ZM80.5 49.525V30.475H79.5V49.525H80.5ZM80 29.975H76.175V30.975H80V29.975ZM45.7 15.75H53.325V14.75H45.7V15.75ZM52.825 15.25V19.05H53.825V15.25H52.825ZM53.325 19.55H57.15V18.55H53.325V19.55ZM56.65 19.05V22.85H57.65V19.05H56.65ZM57.15 23.35H60.95V22.35H57.15V23.35ZM60.45 22.85V26.675H61.45V22.85H60.45ZM60.95 27.175H64.75V26.175H60.95V27.175ZM64.25 26.675V34.3H65.25V26.675H64.25ZM64.75 33.8H60.95V34.8H64.75V33.8ZM61.45 34.3V26.675H60.45V34.3H61.45ZM60.95 26.175H57.15V27.175H60.95V26.175ZM57.65 26.675V22.85H56.65V26.675H57.65ZM57.15 22.35H53.325V23.35H57.15V22.35ZM53.825 22.85V19.05H52.825V22.85H53.825ZM53.325 18.55H45.7V19.55H53.325V18.55ZM46.2 19.05V15.25H45.2V19.05H46.2ZM64.25 41.9V49.525H65.25V41.9H64.25ZM64.75 49.025H60.95V50.025H64.75V49.025ZM60.45 49.525V53.325H61.45V49.525H60.45ZM60.95 52.825H57.15V53.825H60.95V52.825ZM56.65 53.325V57.15H57.65V53.325H56.65ZM57.15 56.65H53.325V57.65H57.15V56.65ZM52.825 57.15V60.95H53.825V57.15H52.825ZM53.325 60.45H49.525V61.45H53.325V60.45ZM49.025 60.95V64.775H50.025V60.95H49.025ZM49.525 64.275H41.9V65.275H49.525V64.275ZM42.4 64.775V60.95H41.4V64.775H42.4ZM41.9 61.45H49.525V60.45H41.9V61.45ZM50.025 60.95V57.15H49.025V60.95H50.025ZM49.525 57.65H53.325V56.65H49.525V57.65ZM53.825 57.15V53.325H52.825V57.15H53.825ZM53.325 53.825H57.15V52.825H53.325V53.825ZM57.65 53.325V49.525H56.65V53.325H57.65ZM57.15 50.025H60.95V49.025H57.15V50.025ZM61.45 49.525V41.9H60.45V49.525H61.45ZM60.95 42.4H64.75V41.4H60.95V42.4ZM10.925 26.675V38.1H11.925V26.675H10.925ZM11.425 37.6H7.625V38.6H11.425V37.6ZM8.125 38.1V26.675H7.125V38.1H8.125ZM7.625 27.175H11.425V26.175H7.625V27.175ZM11.925 26.675V22.85H10.925V26.675H11.925ZM11.425 23.35H15.225V22.35H11.425V23.35ZM15.725 22.85V19.05H14.725V22.85H15.725ZM15.225 19.55H19.05V18.55H15.225V19.55ZM19.55 19.05V15.25H18.55V19.05H19.55ZM19.05 15.75H22.85V14.75H19.05V15.75ZM23.35 15.25V11.425H22.35V15.25H23.35ZM22.85 11.925H26.675V10.925H22.85V11.925ZM27.175 11.425V7.625H26.175V11.425H27.175ZM26.675 8.125H38.1V7.125H26.675V8.125ZM37.6 7.625V11.425H38.6V7.625H37.6ZM38.1 10.925H26.675V11.925H38.1V10.925ZM26.175 11.425V15.25H27.175V11.425H26.175ZM26.675 14.75H22.85V15.75H26.675V14.75ZM22.35 15.25V19.05H23.35V15.25H22.35ZM22.85 18.55H19.05V19.55H22.85V18.55ZM18.55 19.05V22.85H19.55V19.05H18.55ZM19.05 22.35H15.225V23.35H19.05V22.35ZM14.725 22.85V26.675H15.725V22.85H14.725ZM15.225 26.175H11.425V27.175H15.225V26.175ZM37.6 15.25V19.05H38.6V15.25H37.6ZM38.1 18.55H30.475V19.55H38.1V18.55ZM29.975 19.05V22.85H30.975V19.05H29.975ZM30.475 22.35H26.675V23.35H30.475V22.35ZM26.175 22.85V26.675H27.175V22.85H26.175ZM26.675 26.175H22.85V27.175H26.675V26.175ZM22.35 26.675V30.475H23.35V26.675H22.35ZM22.85 29.975H19.05V30.975H22.85V29.975ZM18.55 30.475V38.1H19.55V30.475H18.55ZM19.05 37.6H15.225V38.6H19.05V37.6ZM15.725 38.1V30.475H14.725V38.1H15.725ZM15.225 30.975H19.05V29.975H15.225V30.975ZM19.55 30.475V26.675H18.55V30.475H19.55ZM19.05 27.175H22.85V26.175H19.05V27.175ZM23.35 26.675V22.85H22.35V26.675H23.35ZM22.85 23.35H26.675V22.35H22.85V23.35ZM27.175 22.85V19.05H26.175V22.85H27.175ZM26.675 19.55H30.475V18.55H26.675V19.55ZM30.975 19.05V15.25H29.975V19.05H30.975ZM30.475 15.75H38.1V14.75H30.475V15.75ZM34.275 64.275H26.675V65.275H34.275V64.275ZM27.175 64.775V60.95H26.175V64.775H27.175ZM26.675 60.45H22.85V61.45H26.675V60.45ZM23.35 60.95V57.15H22.35V60.95H23.35ZM22.85 56.65H19.05V57.65H22.85V56.65ZM19.55 57.15V53.325H18.55V57.15H19.55ZM19.05 52.825H15.225V53.825H19.05V52.825ZM15.725 53.325V45.725H14.725V53.325H15.725ZM15.225 46.225H19.05V45.225H15.225V46.225ZM18.55 45.725V53.325H19.55V45.725H18.55ZM19.05 53.825H22.85V52.825H19.05V53.825ZM22.35 53.325V57.15H23.35V53.325H22.35ZM22.85 57.65H26.675V56.65H22.85V57.65ZM26.175 57.15V60.95H27.175V57.15H26.175ZM26.675 61.45H34.275V60.45H26.675V61.45ZM33.775 60.95V64.775H34.775V60.95H33.775ZM30.975 45.725V34.3H29.975V45.725H30.975ZM30.475 34.8H34.275V33.8H30.475V34.8ZM34.775 34.3V30.475H33.775V34.3H34.775ZM34.275 30.975H45.7V29.975H34.275V30.975ZM45.2 30.475V34.3H46.2V30.475H45.2ZM45.7 34.8H49.525V33.8H45.7V34.8ZM49.025 34.3V45.725H50.025V34.3H49.025ZM49.525 45.225H45.7V46.225H49.525V45.225ZM45.2 45.725V49.525H46.2V45.725H45.2ZM45.7 49.025H34.275V50.025H45.7V49.025ZM34.775 49.525V45.725H33.775V49.525H34.775ZM34.275 45.225H30.475V46.225H34.275V45.225ZM72.375 52.825H68.575V53.825H72.375V52.825ZM68.075 53.325V57.15H69.075V53.325H68.075ZM68.575 56.65H64.75V57.65H68.575V56.65ZM64.25 57.15V60.95H65.25V57.15H64.25ZM64.75 60.45H60.95V61.45H64.75V60.45ZM60.45 60.95V64.775H61.45V60.95H60.45ZM60.95 64.275H57.15V65.275H60.95V64.275ZM56.65 64.775V68.575H57.65V64.775H56.65ZM57.15 68.075H53.325V69.075H57.15V68.075ZM52.825 68.575V72.375H53.825V68.575H52.825ZM53.325 71.875H41.9V72.875H53.325V71.875ZM42.4 72.375V68.575H41.4V72.375H42.4ZM41.9 69.075H53.325V68.075H41.9V69.075ZM53.825 68.575V64.775H52.825V68.575H53.825ZM53.325 65.275H57.15V64.275H53.325V65.275ZM57.65 64.775V60.95H56.65V64.775H57.65ZM57.15 61.45H60.95V60.45H57.15V61.45ZM61.45 60.95V57.15H60.45V60.95H61.45ZM60.95 57.65H64.75V56.65H60.95V57.65ZM65.25 57.15V53.325H64.25V57.15H65.25ZM64.75 53.825H68.575V52.825H64.75V53.825ZM69.075 53.325V41.9H68.075V53.325H69.075ZM68.575 42.4H72.375V41.4H68.575V42.4ZM71.875 41.9V53.325H72.875V41.9H71.875Z" fill="black" mask="url(#path-1-inside-1_17_116)"/>
<path d="M38.35 38.35H41.65V41.65H38.35V38.35Z" fill="#FFC10B" stroke="black" stroke-width="0.5"/>
</g>
<defs>
<clipPath id="clip0_17_116">
<rect width="80" height="80" fill="white"/>
</clipPath>
</defs>
</svg>
