<svg width="80" height="80" viewBox="0 0 80 80" fill="none" xmlns="http://www.w3.org/2000/svg">
<g clip-path="url(#clip0_48_108)">
<path d="M19.0498 70.4624H49.5248V74.2874H19.0498V70.4624Z" fill="#FFC10B"/>
<path d="M15.25 66.6624H19.05V70.4624H15.25V66.6624Z" fill="#FFC10B"/>
<path d="M15.25 51.4125H26.675V47.6125H22.875V43.8125H19.05V39.9875H15.25V36.1875H11.45V39.9875H7.625V43.8125H3.825V47.6125H0V51.4125H11.45V66.6625H15.25V51.4125Z" fill="#FFC10B"/>
<path d="M68.5751 28.5624V13.3374H64.7751V28.5624H53.3501V32.3624H57.1501V36.1874H60.9751V39.9874H64.7751V43.8124H68.5751V39.9874H72.4001V36.1874H76.2001V32.3624H80.0001V28.5624H68.5751Z" fill="#FFC10B"/>
<path d="M60.9751 9.51245H64.7751V13.3375H60.9751V9.51245Z" fill="#FFC10B"/>
<path d="M30.4751 5.7124H60.9751V9.5124H30.4751V5.7124Z" fill="#FFC10B"/>
</g>
<defs>
<clipPath id="clip0_48_108">
<rect width="80" height="80" fill="white"/>
</clipPath>
</defs>
</svg>
