<svg width="60" height="60" viewBox="0 0 60 60" fill="none" xmlns="http://www.w3.org/2000/svg">
<path d="M0 0H8.57143V8.57143H0V0ZM17.1429 17.1429H8.57143V8.57143H17.1429V17.1429ZM25.7143 25.7143H17.1429V17.1429H25.7143V25.7143ZM34.2857 25.7143H25.7143V34.2857H17.1429V42.8571H8.57143V51.4286H0V60H8.57143V51.4286H17.1429V42.8571H25.7143V34.2857H34.2857V42.8571H42.8571V51.4286H51.4286V60H60V51.4286H51.4286V42.8571H42.8571V34.2857H34.2857V25.7143ZM42.8571 17.1429V25.7143H34.2857V17.1429H42.8571ZM51.4286 8.57143V17.1429H42.8571V8.57143H51.4286ZM51.4286 8.57143V0H60V8.57143H51.4286Z" fill="white"/>
</svg>
