# MagicaVoxel @ Ephtracy

# group
o 

# material
mtllib spider.mtl
usemtl palette

# normals
vn -1 0 0
vn 1 0 0
vn 0 0 1
vn 0 0 -1
vn 0 -1 0
vn 0 1 0

# texcoords
vt 0.970703 0.5
vt 0.974609 0.5
vt 0.978516 0.5

# verts
v 1.1 3.5 0.3
v 1.1 3.5 0.2
v 1.1 3.5 -0.1
v 1.1 3.5 -0.2
v 1.1 3.7 0.3
v 1.1 3.7 0.2
v 1.1 3.7 -0.1
v 1.1 3.7 -0.2
v 1.2 3.6 0.2
v 1.2 3.6 -0.1
v 1.2 3.7 0.2
v 1.2 3.7 -0.1
v 1.2 3.8 0.2
v 1.2 3.8 0.1
v 1.2 3.8 0
v 1.2 3.8 -0.1
v 1.2 5.5 0.1
v 1.2 5.5 0
v 1.3 3.5 0.4
v 1.3 3.5 0.3
v 1.3 3.5 -0.2
v 1.3 3.5 -0.3
v 1.3 3.6 0.4
v 1.3 3.6 0.3
v 1.3 3.6 0.2
v 1.3 3.6 -0.1
v 1.3 3.6 -0.2
v 1.3 3.6 -0.3
v 1.3 3.7 0.3
v 1.3 3.7 0.2
v 1.3 3.7 -0.1
v 1.3 3.7 -0.2
v 1.5 3.5 0.4
v 1.5 3.5 0.3
v 1.5 3.5 -0.2
v 1.5 3.5 -0.3
v 1.5 3.6 0.4
v 1.5 3.6 0.3
v 1.5 3.6 0.2
v 1.5 3.6 -0.1
v 1.5 3.6 -0.2
v 1.5 3.6 -0.3
v 1.5 3.7 0.3
v 1.5 3.7 0.2
v 1.5 3.7 -0.1
v 1.5 3.7 -0.2
v 1.2 3.5 0.3
v 1.2 3.5 0.2
v 1.2 3.5 -0.1
v 1.2 3.5 -0.2
v 1.2 3.6 0.2
v 1.2 3.6 -0.1
v 1.2 3.7 0.3
v 1.2 3.7 0.2
v 1.2 3.7 -0.1
v 1.2 3.7 -0.2
v 1.3 3.8 0.1
v 1.3 3.8 0
v 1.3 5.5 0.1
v 1.3 5.5 0
v 1.4 3.5 0.4
v 1.4 3.5 0.3
v 1.4 3.5 -0.2
v 1.4 3.5 -0.3
v 1.4 3.6 0.4
v 1.4 3.6 0.3
v 1.4 3.6 0.2
v 1.4 3.6 -0.1
v 1.4 3.6 -0.2
v 1.4 3.6 -0.3
v 1.4 3.7 0.3
v 1.4 3.7 0.2
v 1.4 3.7 -0.1
v 1.4 3.7 -0.2
v 1.6 3.5 0.4
v 1.6 3.5 0.3
v 1.6 3.5 -0.2
v 1.6 3.5 -0.3
v 1.6 3.6 0.4
v 1.6 3.6 0.3
v 1.6 3.6 -0.2
v 1.6 3.6 -0.3
v 1.6 3.7 0.3
v 1.6 3.7 0.2
v 1.6 3.7 0.1
v 1.6 3.7 0
v 1.6 3.7 -0.1
v 1.6 3.7 -0.2
v 1.6 3.8 0.2
v 1.6 3.8 0.1
v 1.6 3.8 0
v 1.6 3.8 -0.1
v 1.3 3.5 0.4
v 1.3 3.6 0.4
v 1.4 3.5 0.4
v 1.4 3.6 0.4
v 1.5 3.5 0.4
v 1.5 3.6 0.4
v 1.6 3.5 0.4
v 1.6 3.6 0.4
v 1.1 3.5 0.3
v 1.1 3.7 0.3
v 1.2 3.5 0.3
v 1.2 3.7 0.3
v 1.3 3.6 0.3
v 1.3 3.7 0.3
v 1.4 3.6 0.3
v 1.4 3.7 0.3
v 1.5 3.6 0.3
v 1.5 3.7 0.3
v 1.6 3.6 0.3
v 1.6 3.7 0.3
v 1.2 3.6 0.2
v 1.2 3.7 0.2
v 1.2 3.8 0.2
v 1.3 3.6 0.2
v 1.3 3.7 0.2
v 1.4 3.6 0.2
v 1.4 3.7 0.2
v 1.5 3.6 0.2
v 1.5 3.7 0.2
v 1.5 3.8 0.2
v 1.6 3.7 0.2
v 1.6 3.8 0.2
v 1.2 3.8 0.1
v 1.2 5.5 0.1
v 1.3 3.8 0.1
v 1.3 5.5 0.1
v 1.1 3.5 -0.1
v 1.1 3.7 -0.1
v 1.2 3.5 -0.1
v 1.2 3.6 -0.1
v 1.2 3.7 -0.1
v 1.3 3.5 -0.2
v 1.3 3.6 -0.2
v 1.4 3.5 -0.2
v 1.4 3.6 -0.2
v 1.5 3.5 -0.2
v 1.5 3.6 -0.2
v 1.6 3.5 -0.2
v 1.6 3.6 -0.2
v 1.3 3.5 0.3
v 1.3 3.6 0.3
v 1.4 3.5 0.3
v 1.4 3.6 0.3
v 1.5 3.5 0.3
v 1.5 3.6 0.3
v 1.6 3.5 0.3
v 1.6 3.6 0.3
v 1.1 3.5 0.2
v 1.1 3.7 0.2
v 1.2 3.5 0.2
v 1.2 3.6 0.2
v 1.2 3.7 0.2
v 1.2 3.8 0
v 1.2 5.5 0
v 1.3 3.8 0
v 1.3 5.5 0
v 1.2 3.6 -0.1
v 1.2 3.7 -0.1
v 1.2 3.8 -0.1
v 1.3 3.6 -0.1
v 1.3 3.7 -0.1
v 1.4 3.6 -0.1
v 1.4 3.7 -0.1
v 1.5 3.6 -0.1
v 1.5 3.7 -0.1
v 1.5 3.8 -0.1
v 1.6 3.7 -0.1
v 1.6 3.8 -0.1
v 1.1 3.5 -0.2
v 1.1 3.7 -0.2
v 1.2 3.5 -0.2
v 1.2 3.7 -0.2
v 1.3 3.6 -0.2
v 1.3 3.7 -0.2
v 1.4 3.6 -0.2
v 1.4 3.7 -0.2
v 1.5 3.6 -0.2
v 1.5 3.7 -0.2
v 1.6 3.6 -0.2
v 1.6 3.7 -0.2
v 1.3 3.5 -0.3
v 1.3 3.6 -0.3
v 1.4 3.5 -0.3
v 1.4 3.6 -0.3
v 1.5 3.5 -0.3
v 1.5 3.6 -0.3
v 1.6 3.5 -0.3
v 1.6 3.6 -0.3
v 1.3 3.5 0.4
v 1.4 3.5 0.4
v 1.5 3.5 0.4
v 1.6 3.5 0.4
v 1.1 3.5 0.3
v 1.2 3.5 0.3
v 1.3 3.5 0.3
v 1.4 3.5 0.3
v 1.5 3.5 0.3
v 1.6 3.5 0.3
v 1.1 3.5 0.2
v 1.2 3.5 0.2
v 1.1 3.5 -0.1
v 1.2 3.5 -0.1
v 1.1 3.5 -0.2
v 1.2 3.5 -0.2
v 1.3 3.5 -0.2
v 1.4 3.5 -0.2
v 1.5 3.5 -0.2
v 1.6 3.5 -0.2
v 1.3 3.5 -0.3
v 1.4 3.5 -0.3
v 1.5 3.5 -0.3
v 1.6 3.5 -0.3
v 1.3 3.6 0.3
v 1.4 3.6 0.3
v 1.5 3.6 0.3
v 1.6 3.6 0.3
v 1.2 3.6 0.2
v 1.3 3.6 0.2
v 1.4 3.6 0.2
v 1.5 3.6 0.2
v 1.2 3.6 -0.1
v 1.3 3.6 -0.1
v 1.4 3.6 -0.1
v 1.5 3.6 -0.1
v 1.3 3.6 -0.2
v 1.4 3.6 -0.2
v 1.5 3.6 -0.2
v 1.6 3.6 -0.2
v 1.3 3.6 0.4
v 1.4 3.6 0.4
v 1.5 3.6 0.4
v 1.6 3.6 0.4
v 1.3 3.6 0.3
v 1.4 3.6 0.3
v 1.5 3.6 0.3
v 1.6 3.6 0.3
v 1.3 3.6 -0.2
v 1.4 3.6 -0.2
v 1.5 3.6 -0.2
v 1.6 3.6 -0.2
v 1.3 3.6 -0.3
v 1.4 3.6 -0.3
v 1.5 3.6 -0.3
v 1.6 3.6 -0.3
v 1.1 3.7 0.3
v 1.2 3.7 0.3
v 1.3 3.7 0.3
v 1.4 3.7 0.3
v 1.5 3.7 0.3
v 1.6 3.7 0.3
v 1.1 3.7 0.2
v 1.2 3.7 0.2
v 1.3 3.7 0.2
v 1.4 3.7 0.2
v 1.5 3.7 0.2
v 1.6 3.7 0.2
v 1.1 3.7 -0.1
v 1.2 3.7 -0.1
v 1.3 3.7 -0.1
v 1.4 3.7 -0.1
v 1.5 3.7 -0.1
v 1.6 3.7 -0.1
v 1.1 3.7 -0.2
v 1.2 3.7 -0.2
v 1.3 3.7 -0.2
v 1.4 3.7 -0.2
v 1.5 3.7 -0.2
v 1.6 3.7 -0.2
v 1.2 3.8 0.2
v 1.5 3.8 0.2
v 1.6 3.8 0.2
v 1.2 3.8 0.1
v 1.3 3.8 0.1
v 1.5 3.8 0.1
v 1.6 3.8 0.1
v 1.2 3.8 0
v 1.3 3.8 0
v 1.5 3.8 0
v 1.6 3.8 0
v 1.2 3.8 -0.1
v 1.5 3.8 -0.1
v 1.6 3.8 -0.1
v 1.2 5.5 0.1
v 1.3 5.5 0.1
v 1.2 5.5 0
v 1.3 5.5 0

# faces
f 5/2/1 2/2/1 1/2/1
f 6/2/1 2/2/1 5/2/1
f 7/2/1 4/2/1 3/2/1
f 8/2/1 4/2/1 7/2/1
f 11/2/1 10/2/1 9/2/1
f 12/2/1 10/2/1 11/2/1
f 13/2/1 12/2/1 11/2/1
f 14/2/1 12/2/1 13/2/1
f 15/2/1 12/2/1 14/2/1
f 16/2/1 12/2/1 15/2/1
f 17/1/1 15/1/1 14/1/1
f 18/1/1 15/1/1 17/1/1
f 23/2/1 20/2/1 19/2/1
f 24/2/1 20/2/1 23/2/1
f 27/2/1 22/2/1 21/2/1
f 28/2/1 22/2/1 27/2/1
f 29/2/1 25/2/1 24/2/1
f 30/2/1 25/2/1 29/2/1
f 31/2/1 27/2/1 26/2/1
f 32/2/1 27/2/1 31/2/1
f 37/2/1 34/2/1 33/2/1
f 38/2/1 34/2/1 37/2/1
f 41/2/1 36/2/1 35/2/1
f 42/2/1 36/2/1 41/2/1
f 43/2/1 39/2/1 38/2/1
f 44/2/1 39/2/1 43/2/1
f 45/2/1 41/2/1 40/2/1
f 46/2/1 41/2/1 45/2/1
f 47/2/2 48/2/2 51/2/2
f 49/2/2 50/2/2 52/2/2
f 47/2/2 51/2/2 53/2/2
f 53/2/2 51/2/2 54/2/2
f 52/2/2 50/2/2 55/2/2
f 55/2/2 50/2/2 56/2/2
f 57/1/2 58/1/2 59/1/2
f 59/1/2 58/1/2 60/1/2
f 61/2/2 62/2/2 65/2/2
f 65/2/2 62/2/2 66/2/2
f 63/2/2 64/2/2 69/2/2
f 69/2/2 64/2/2 70/2/2
f 66/2/2 67/2/2 71/2/2
f 71/2/2 67/2/2 72/2/2
f 68/2/2 69/2/2 73/2/2
f 73/2/2 69/2/2 74/2/2
f 75/2/2 76/2/2 79/2/2
f 79/2/2 76/2/2 80/2/2
f 77/2/2 78/2/2 81/2/2
f 81/2/2 78/2/2 82/2/2
f 80/2/2 81/2/2 83/2/2
f 83/2/2 81/2/2 84/2/2
f 84/2/2 81/2/2 85/2/2
f 85/2/2 81/2/2 86/2/2
f 86/2/2 81/2/2 87/2/2
f 87/2/2 81/2/2 88/2/2
f 84/3/2 85/3/2 89/3/2
f 85/2/2 86/2/2 90/2/2
f 89/3/2 85/3/2 90/3/2
f 86/3/2 87/3/2 91/3/2
f 90/2/2 86/2/2 91/2/2
f 91/3/2 87/3/2 92/3/2
f 95/2/3 94/2/3 93/2/3
f 96/2/3 94/2/3 95/2/3
f 99/2/3 98/2/3 97/2/3
f 100/2/3 98/2/3 99/2/3
f 103/2/3 102/2/3 101/2/3
f 104/2/3 102/2/3 103/2/3
f 107/2/3 106/2/3 105/2/3
f 108/2/3 106/2/3 107/2/3
f 111/2/3 110/2/3 109/2/3
f 112/2/3 110/2/3 111/2/3
f 116/2/3 114/2/3 113/2/3
f 116/2/3 115/2/3 114/2/3
f 117/2/3 115/2/3 116/2/3
f 119/2/3 115/2/3 117/2/3
f 120/2/3 119/2/3 118/2/3
f 121/2/3 115/2/3 119/2/3
f 121/2/3 119/2/3 120/2/3
f 122/2/3 115/2/3 121/2/3
f 123/3/3 122/3/3 121/3/3
f 124/3/3 122/3/3 123/3/3
f 127/1/3 126/1/3 125/1/3
f 128/1/3 126/1/3 127/1/3
f 131/2/3 130/2/3 129/2/3
f 132/2/3 130/2/3 131/2/3
f 133/2/3 130/2/3 132/2/3
f 136/2/3 135/2/3 134/2/3
f 137/2/3 135/2/3 136/2/3
f 140/2/3 139/2/3 138/2/3
f 141/2/3 139/2/3 140/2/3
f 142/2/4 143/2/4 144/2/4
f 144/2/4 143/2/4 145/2/4
f 146/2/4 147/2/4 148/2/4
f 148/2/4 147/2/4 149/2/4
f 150/2/4 151/2/4 152/2/4
f 152/2/4 151/2/4 153/2/4
f 153/2/4 151/2/4 154/2/4
f 155/1/4 156/1/4 157/1/4
f 157/1/4 156/1/4 158/1/4
f 159/2/4 160/2/4 162/2/4
f 160/2/4 161/2/4 162/2/4
f 162/2/4 161/2/4 163/2/4
f 163/2/4 161/2/4 165/2/4
f 164/2/4 165/2/4 166/2/4
f 165/2/4 161/2/4 167/2/4
f 166/2/4 165/2/4 167/2/4
f 167/2/4 161/2/4 168/2/4
f 167/3/4 168/3/4 169/3/4
f 169/3/4 168/3/4 170/3/4
f 171/2/4 172/2/4 173/2/4
f 173/2/4 172/2/4 174/2/4
f 175/2/4 176/2/4 177/2/4
f 177/2/4 176/2/4 178/2/4
f 179/2/4 180/2/4 181/2/4
f 181/2/4 180/2/4 182/2/4
f 183/2/4 184/2/4 185/2/4
f 185/2/4 184/2/4 186/2/4
f 187/2/4 188/2/4 189/2/4
f 189/2/4 188/2/4 190/2/4
f 197/2/5 192/2/5 191/2/5
f 198/2/5 192/2/5 197/2/5
f 199/2/5 194/2/5 193/2/5
f 200/2/5 194/2/5 199/2/5
f 201/2/5 196/2/5 195/2/5
f 202/2/5 196/2/5 201/2/5
f 205/2/5 204/2/5 203/2/5
f 206/2/5 204/2/5 205/2/5
f 211/2/5 208/2/5 207/2/5
f 212/2/5 208/2/5 211/2/5
f 213/2/5 210/2/5 209/2/5
f 214/2/5 210/2/5 213/2/5
f 220/2/5 216/2/5 215/2/5
f 221/2/5 216/2/5 220/2/5
f 222/2/5 218/2/5 217/2/5
f 223/2/5 221/2/5 220/2/5
f 223/2/5 222/2/5 221/2/5
f 223/2/5 220/2/5 219/2/5
f 224/2/5 222/2/5 223/2/5
f 225/2/5 222/2/5 224/2/5
f 226/2/5 218/2/5 222/2/5
f 226/2/5 222/2/5 225/2/5
f 227/2/5 225/2/5 224/2/5
f 228/2/5 225/2/5 227/2/5
f 229/2/5 218/2/5 226/2/5
f 230/2/5 218/2/5 229/2/5
f 231/2/6 232/2/6 235/2/6
f 235/2/6 232/2/6 236/2/6
f 233/2/6 234/2/6 237/2/6
f 237/2/6 234/2/6 238/2/6
f 239/2/6 240/2/6 243/2/6
f 243/2/6 240/2/6 244/2/6
f 241/2/6 242/2/6 245/2/6
f 245/2/6 242/2/6 246/2/6
f 247/2/6 248/2/6 253/2/6
f 253/2/6 248/2/6 254/2/6
f 249/2/6 250/2/6 255/2/6
f 255/2/6 250/2/6 256/2/6
f 251/2/6 252/2/6 257/2/6
f 257/2/6 252/2/6 258/2/6
f 259/2/6 260/2/6 265/2/6
f 265/2/6 260/2/6 266/2/6
f 261/2/6 262/2/6 267/2/6
f 267/2/6 262/2/6 268/2/6
f 263/2/6 264/2/6 269/2/6
f 269/2/6 264/2/6 270/2/6
f 271/2/6 272/2/6 274/2/6
f 274/2/6 272/2/6 275/2/6
f 272/3/6 273/3/6 276/3/6
f 275/2/6 272/2/6 276/2/6
f 276/3/6 273/3/6 277/3/6
f 275/2/6 276/2/6 279/2/6
f 276/2/6 277/2/6 279/2/6
f 279/2/6 277/2/6 280/2/6
f 280/2/6 277/2/6 281/2/6
f 278/2/6 279/2/6 282/2/6
f 279/2/6 280/2/6 282/2/6
f 280/3/6 281/3/6 283/3/6
f 282/2/6 280/2/6 283/2/6
f 283/3/6 281/3/6 284/3/6
f 285/1/6 286/1/6 287/1/6
f 287/1/6 286/1/6 288/1/6
