<svg width="60" height="60" viewBox="0 0 60 60" fill="none" xmlns="http://www.w3.org/2000/svg">
<g clip-path="url(#clip0_18_667)">
<path d="M57.1499 22.8562H59.9999V37.1437H57.1499V22.8562Z" fill="black"/>
<path d="M54.2812 37.1438H57.15V42.8438H54.2812V37.1438Z" fill="black"/>
<path d="M51.4312 42.8438H54.2812V48.5625H51.4312V42.8438Z" fill="black"/>
<path d="M51.4312 11.4187H54.2812V17.1375H51.4312V11.4187Z" fill="black"/>
<path d="M48.5813 48.5625H51.4313V51.4125H48.5813V48.5625Z" fill="black"/>
<path d="M48.5813 8.56873H51.4313V11.4187H48.5813V8.56873Z" fill="black"/>
<path d="M42.8625 51.4125H48.5813V54.2812H42.8625V51.4125Z" fill="black"/>
<path d="M42.8625 5.69995H48.5813V8.5687H42.8625V5.69995Z" fill="black"/>
<path d="M37.1438 54.2812H42.8625V57.1313H37.1438V54.2812Z" fill="black"/>
<path d="M37.1438 2.84998H42.8625V5.69998H37.1438V2.84998Z" fill="black"/>
<path d="M22.8562 57.1312H37.1437V60H22.8562V57.1312Z" fill="black"/>
<path d="M25.7251 42.8438H37.1438V45.7125H25.7251V42.8438Z" fill="black"/>
<path d="M22.8562 0H37.1437V2.85H22.8562V0Z" fill="black"/>
<path d="M22.8562 39.9938H25.725V42.8438H22.8562V39.9938Z" fill="black"/>
<path d="M17.1375 54.2812H22.8562V57.1313H17.1375V54.2812Z" fill="black"/>
<path d="M17.1375 2.84998H22.8562V5.69998H17.1375V2.84998Z" fill="black"/>
<path d="M11.4375 51.4125H17.1375V54.2812H11.4375V51.4125Z" fill="black"/>
<path d="M11.4375 5.69995H17.1375V8.5687H11.4375V5.69995Z" fill="black"/>
<path d="M8.56885 48.5625H11.4376V51.4125H8.56885V48.5625Z" fill="black"/>
<path d="M8.56885 8.56873H11.4376V11.4187H8.56885V8.56873Z" fill="black"/>
<path d="M5.71875 42.8438H8.56875V48.5625H5.71875V42.8438Z" fill="black"/>
<path d="M5.71865 28.5562H8.56865V31.425H11.4374V34.275H22.8562V31.425H25.7249V28.5562H28.5749V25.7062H34.2937V28.5562H37.1437V31.425H39.9937V34.275H51.4312V31.425H54.2812V22.8562H57.1499V17.1375H54.2812V19.9875H5.71865V17.1375H2.86865V22.8562H5.71865V28.5562Z" fill="black"/>
<path d="M5.71875 11.4187H8.56875V17.1375H5.71875V11.4187Z" fill="black"/>
<path d="M2.86865 37.1438H5.71865V42.8438H2.86865V37.1438Z" fill="black"/>
<path d="M0 22.8562H2.86875V37.1437H0V22.8562Z" fill="black"/>
</g>
<defs>
<clipPath id="clip0_18_667">
<rect width="60" height="60" fill="white"/>
</clipPath>
</defs>
</svg>
