<svg width="70" height="70" viewBox="0 0 70 70" fill="none" xmlns="http://www.w3.org/2000/svg">
<path d="M60.3883 30.2803L60.6212 29.8378L60.3883 30.2803C64.1875 32.2797 64.1875 37.7197 60.3883 39.7195L14.1506 64.055L14.3835 64.4974L14.1506 64.055C10.5991 65.9243 6.33331 63.3488 6.33331 59.3355V10.6642C6.33331 6.65079 10.5991 4.07538 14.1506 5.94461L60.3883 30.2803ZM58.1371 35.4422L58.9778 34.9997L58.1371 34.5573L47.6818 29.0544L47.3693 28.8899L47.1098 29.1294L41.1484 34.6323L40.7504 34.9997L41.1484 35.3671L47.1098 40.87L47.3693 41.1095L47.6818 40.945L58.1371 35.4422ZM42.2046 43.8279L42.831 43.4982L42.3108 43.018L37.5266 38.6016L37.1875 38.2885L36.8483 38.6016L19.3711 54.7346L19.9432 55.5444L42.2046 43.8279ZM36.8483 31.3978L37.1875 31.7109L37.5266 31.3978L42.3108 26.9816L42.831 26.5015L42.2046 26.1718L19.9432 14.4552L19.3711 15.2651L36.8483 31.3978ZM12.0058 15.044L11.1666 14.2694V15.4114V54.5881V55.73L12.0058 54.9555L33.2266 35.3671L33.6246 34.9997L33.2266 34.6323L12.0058 15.044Z" fill="#FFD148" stroke="black"/>
</svg>
