<svg width="70" height="70" viewBox="0 0 70 70" fill="none" xmlns="http://www.w3.org/2000/svg">
<g clip-path="url(#clip0_15_73)">
<path d="M66.8 19.9937V19.8687H66.675H63.4531V16.7937H69.875V26.5406H63.4531V23.4656H66.675H66.8V23.3406V19.9937Z" fill="#FFD148" stroke="black" stroke-width="0.25"/>
<path d="M63.4531 30.1156H66.55V33.2125H63.4531V30.1156Z" fill="#FFD148" stroke="black" stroke-width="0.25"/>
<path d="M63.4531 10.1219H66.55V13.1969H63.4531V10.1219Z" fill="#FFD148" stroke="black" stroke-width="0.25"/>
<path d="M60.1281 33.4625H63.2031V36.5375H60.1281V33.4625Z" fill="#FFD148" stroke="black" stroke-width="0.25"/>
<path d="M60.1281 26.7906H63.2031V29.8656H60.1281V26.7906Z" fill="#FFD148" stroke="black" stroke-width="0.25"/>
<path d="M60.1281 13.4469H63.2031V16.5437H60.1281V13.4469Z" fill="#FFD148" stroke="black" stroke-width="0.25"/>
<path d="M60.1281 6.79688H63.2031V9.87188H60.1281V6.79688Z" fill="#FFD148" stroke="black" stroke-width="0.25"/>
<path d="M56.8031 36.7875H59.8781V39.8625H56.8031V36.7875Z" fill="#FFD148" stroke="black" stroke-width="0.25"/>
<path d="M56.8031 3.45H59.8781V6.54687H56.8031V3.45Z" fill="#FFD148" stroke="black" stroke-width="0.25"/>
<path d="M53.4562 33.4625H56.5531V36.5375H53.4562V33.4625Z" fill="#FFD148" stroke="black" stroke-width="0.25"/>
<path d="M53.4562 6.79688H56.5531V9.87188H53.4562V6.79688Z" fill="#FFD148" stroke="black" stroke-width="0.25"/>
<path d="M46.6812 3.2H46.5562V3.325V6.54687H43.4594V0.125H53.2062V6.54687H50.1312V3.325V3.2H50.0062H46.6812Z" fill="#FFD148" stroke="black" stroke-width="0.25"/>
<path d="M46.8063 56.7812H49.8813V59.8781H46.8063V56.7812Z" fill="#FFC10B" stroke="black" stroke-width="0.25"/>
<path d="M50.1312 39.9875V39.8625H50.0062H43.4594V36.7875H53.2062V49.8813H43.4594V46.7844H50.0062H50.1312V46.6594V39.9875Z" fill="#FFC10B" stroke="black" stroke-width="0.25"/>
<path d="M43.4594 60.1281H46.5562V63.2031H43.4594V60.1281Z" fill="#FFC10B" stroke="black" stroke-width="0.25"/>
<path d="M43.4594 53.4563H46.5562V56.5313H43.4594V53.4563Z" fill="#FFC10B" stroke="black" stroke-width="0.25"/>
<path d="M43.4594 30.1156H46.5562V33.2125H43.4594V30.1156Z" fill="#FFC10B" stroke="black" stroke-width="0.25"/>
<path d="M46.8063 26.6656V26.5406H46.6813H43.4594V23.3406V23.2156H43.3344H40.1344V16.7937H43.3344H43.4594V16.6687V13.4469H53.2063V16.5437H50.0063H49.8813V16.6687V19.9937V20.1187H50.0063H53.3313H53.4563V19.9937V16.7937H56.5532V26.5406H53.3313H53.2063V26.6656V29.8656H46.8063V26.6656Z" fill="#FFD148" stroke="black" stroke-width="0.25"/>
<path d="M40.1344 63.4531H43.2094V66.55H40.1344V63.4531Z" fill="#FFC10B" stroke="black" stroke-width="0.25"/>
<path d="M40.1344 50.1313H43.2094V53.2063H40.1344V50.1313Z" fill="#FFC10B" stroke="black" stroke-width="0.25"/>
<path d="M40.1344 33.4625H43.2094V36.5375H40.1344V33.4625Z" fill="#FFC10B" stroke="black" stroke-width="0.25"/>
<path d="M40.1344 6.79688H43.2094V9.87188H40.1344V6.79688Z" fill="#FFD148" stroke="black" stroke-width="0.25"/>
<path d="M36.7875 60.1281H39.8844V63.2031H36.7875V60.1281Z" fill="#FFC10B" stroke="black" stroke-width="0.25"/>
<path d="M36.7875 23.4656H39.8844V26.5406H36.7875V23.4656Z" fill="#FFC10B" stroke="black" stroke-width="0.25"/>
<path d="M36.7875 3.45H39.8844V6.54687H36.7875V3.45Z" fill="#FFD148" stroke="black" stroke-width="0.25"/>
<path d="M33.4625 56.7812H36.5375V59.8781H33.4625V56.7812Z" fill="#FFC10B" stroke="black" stroke-width="0.25"/>
<path d="M33.4625 40.1125H36.5375V46.5344H33.4625V40.1125Z" fill="#FFC10B" stroke="black" stroke-width="0.25"/>
<path d="M33.4625 26.7906H36.5375V29.8656H33.4625V26.7906Z" fill="#FFC10B" stroke="black" stroke-width="0.25"/>
<path d="M33.4625 6.79688H36.5375V9.87188H33.4625V6.79688Z" fill="#FFD148" stroke="black" stroke-width="0.25"/>
<path d="M30.0125 66.8H30.1375V66.675V60.1281H33.2125V69.875H20.1406V60.1281H23.2156V66.675V66.8H23.3406H30.0125Z" fill="#FFC10B" stroke="black" stroke-width="0.25"/>
<path d="M30.1375 46.7844H33.2125V49.8813H30.1375V46.7844Z" fill="#FFC10B" stroke="black" stroke-width="0.25"/>
<path d="M30.1375 36.7875H33.2125V39.8625H30.1375V36.7875Z" fill="#FFC10B" stroke="black" stroke-width="0.25"/>
<path d="M30.1375 10.1219H33.2125V13.1969H30.1375V10.1219Z" fill="#FFD148" stroke="black" stroke-width="0.25"/>
<path d="M23.4656 33.4625H29.8875V36.5375H23.4656V33.4625Z" fill="#FFC10B" stroke="black" stroke-width="0.25"/>
<path d="M23.4656 50.1313H29.8875V53.2063H23.4656V50.1313Z" fill="#FFC10B" stroke="black" stroke-width="0.25"/>
<path d="M20.1406 46.7844H23.2156V49.8813H20.1406V46.7844Z" fill="#FFC10B" stroke="black" stroke-width="0.25"/>
<path d="M20.1406 36.7875H23.2156V39.8625H20.1406V36.7875Z" fill="#FFC10B" stroke="black" stroke-width="0.25"/>
<path d="M23.3406 19.8687H23.2156V19.9937V26.5406H20.1406V16.7937H33.2125V26.5406H30.1375V19.9937V19.8687H30.0125H23.3406Z" fill="#FFC10B" stroke="black" stroke-width="0.25"/>
<path d="M16.7938 56.7812H19.8906V59.8781H16.7938V56.7812Z" fill="#FFC10B" stroke="black" stroke-width="0.25"/>
<path d="M16.7938 40.1125H19.8906V46.5344H16.7938V40.1125Z" fill="#FFC10B" stroke="black" stroke-width="0.25"/>
<path d="M16.7938 26.7906H19.8906V29.8656H16.7938V26.7906Z" fill="#FFC10B" stroke="black" stroke-width="0.25"/>
<path d="M13.4688 60.1281H16.5438V63.2031H13.4688V60.1281Z" fill="#FFC10B" stroke="black" stroke-width="0.25"/>
<path d="M13.4688 23.4656H16.5438V26.5406H13.4688V23.4656Z" fill="#FFC10B" stroke="black" stroke-width="0.25"/>
<path d="M10.1219 63.4531H13.2188V66.55H10.1219V63.4531Z" fill="#FFC10B" stroke="black" stroke-width="0.25"/>
<path d="M10.1219 50.1313H13.2188V53.2063H10.1219V50.1313Z" fill="#FFC10B" stroke="black" stroke-width="0.25"/>
<path d="M10.1219 33.4625H13.2188V36.5375H10.1219V33.4625Z" fill="#FFC10B" stroke="black" stroke-width="0.25"/>
<path d="M10.1219 20.1187H13.2188V23.2156H10.1219V20.1187Z" fill="#FFC10B" stroke="black" stroke-width="0.25"/>
<path d="M6.79688 60.1281H9.87188V63.2031H6.79688V60.1281Z" fill="#FFC10B" stroke="black" stroke-width="0.25"/>
<path d="M6.79688 53.4563H9.87188V56.5313H6.79688V53.4563Z" fill="#FFC10B" stroke="black" stroke-width="0.25"/>
<path d="M3.22187 46.6594V46.7844H3.34687H9.87187V49.8813H0.125V36.7875H9.87187V39.8625H3.34687H3.22187V39.9875V46.6594Z" fill="#FFC10B" stroke="black" stroke-width="0.25"/>
<path d="M6.79688 30.1156H9.87188V33.2125H6.79688V30.1156Z" fill="#FFC10B" stroke="black" stroke-width="0.25"/>
<path d="M6.79688 23.4656H9.87188V26.5406H6.79688V23.4656Z" fill="#FFC10B" stroke="black" stroke-width="0.25"/>
<path d="M3.47186 56.7812H6.54686V59.8781H3.47186V56.7812Z" fill="#FFC10B" stroke="black" stroke-width="0.25"/>
<path d="M3.47186 26.7906H6.54686V29.8656H3.47186V26.7906Z" fill="#FFC10B" stroke="black" stroke-width="0.25"/>
</g>
<defs>
<clipPath id="clip0_15_73">
<rect width="70" height="70" fill="white"/>
</clipPath>
</defs>
</svg>
