<svg width="80" height="80" viewBox="0 0 80 80" fill="none" xmlns="http://www.w3.org/2000/svg">
<path d="M71.375 22.85V23.85H72.375H75.175V30.475V31.475H76.175H79V48.525H76.175H75.175V49.525V56.15H72.375H71.375V57.15V63.75H68.55H67.55V64.75V67.575H64.75H63.75V68.575V71.375H57.125H56.125V72.375V75.2H49.525H48.525V76.2V79H31.475V76.2V75.2H30.475H23.85V72.375V71.375H22.85H16.225V68.575V67.575H15.225H12.425V64.75V63.75H11.425H8.6V57.15V56.15H7.6H4.8V49.525V48.525H3.8H1V31.475H3.8H4.8V30.475V23.85H7.6H8.6V22.85V16.225H11.425H12.425V15.225V12.425H15.225H16.225V11.425V8.625H22.85H23.85V7.625V4.8H30.475H31.475V3.8V1H48.525V3.8V4.8H49.525H56.125V7.625V8.625H57.125H63.75V11.425V12.425H64.75H67.55V15.225V16.225H68.55H71.375V22.85ZM57.125 42.9H58.125V41.9V38.1V37.1H57.125H54.325V34.275V33.275H53.325H50.525V30.475V29.475H49.525H46.7V26.675V25.675H45.7H42.9V22.85V21.85H41.9H35.275V19.05V18.05H34.275H30.475H29.475V19.05V60.95V61.95H30.475H34.275H35.275V60.95V58.15H41.9H42.9V57.15V54.325H45.7H46.7V53.325V50.525H49.525H50.525V49.525V46.725H53.325H54.325V45.725V42.9H57.125Z" fill="#FFC10B" stroke="black" stroke-width="2"/>
</svg>
