<svg width="86" height="86" viewBox="0 0 86 86" fill="none" xmlns="http://www.w3.org/2000/svg">
<g clip-path="url(#clip0_15_147)">
<path d="M84.9575 18.4362V17.4362H83.9575H68.5906V6.15436V5.15436H67.5906H63.4788H62.4788V6.15436V17.4362H48.1119V6.15436V5.15436H47.1119H43H42V6.15436V17.4362H23.5213V6.15436V5.15436H22.5213H18.4363H17.4363V6.15436V17.4362H2.04251H1.04251V18.4362V83.9575V84.9575H2.04251H83.9575H84.9575V83.9575V18.4362ZM76.7606 76.7606H78.8725V78.8725H76.7606V76.7606ZM72.6756 72.6756H74.7606V74.7606H72.6756V72.6756ZM68.5906 70.6756V23.5212H70.6756V70.6756H68.5906ZM64.4788 74.7606V72.6756H66.5906V74.7606H64.4788ZM62.4788 76.7606V78.8725H60.3938V76.7606H62.4788ZM54.2819 78.8725H7.15439V23.5212H54.2819V78.8725Z" fill="#FFC10B" stroke="black" stroke-width="2"/>
<path d="M47.1119 1.04248H46.1119V2.04248V6.15436V7.15436H47.1119H63.4788H64.4788V6.15436V2.04248V1.04248H63.4788H47.1119Z" fill="#FFC10B" stroke="black" stroke-width="2"/>
<path d="M22.5213 1.04248H21.5213V2.04248V6.15436V7.15436H22.5213H43H44V6.15436V2.04248V1.04248H43H22.5213Z" fill="#FFC10B" stroke="black" stroke-width="2"/>
</g>
<defs>
<clipPath id="clip0_15_147">
<rect width="86" height="86" fill="white"/>
</clipPath>
</defs>
</svg>
