# MagicaVoxel @ Ephtracy

# group
o 

# material
mtllib rock.mtl
usemtl palette

# normals
vn -1 0 0
vn 1 0 0
vn 0 0 1
vn 0 0 -1
vn 0 -1 0
vn 0 1 0

# texcoords
vt 0.970703 0.5

# verts
v 4.4 0.4 1.2
v 4.4 0.4 0.4
v 4.4 0.5 1.2
v 4.4 0.5 0.4
v 4.6 0.4 1.8
v 4.6 0.4 1.2
v 4.6 0.5 1.2
v 4.6 0.5 0.4
v 4.6 1 0.9
v 4.6 1 0.4
v 4.6 1.1 1.8
v 4.6 1.1 0.9
v 4.8 0.4 1.9
v 4.8 0.4 1.8
v 4.8 0.4 0.4
v 4.8 0.4 0.2
v 4.8 0.7 1.9
v 4.8 0.7 1.8
v 4.8 1 0.4
v 4.8 1 0.2
v 4.8 1.1 1.8
v 4.8 1.1 1.1
v 4.8 1.2 1.8
v 4.8 1.2 1.1
v 4.9 1 0.8
v 4.9 1 0.3
v 4.9 1.5 0.8
v 4.9 1.5 0.3
v 5 1 0.9
v 5 1 0.8
v 5 1.1 1.1
v 5 1.1 0.9
v 5 1.2 1.1
v 5 1.4 1.1
v 5 1.4 0.8
v 5.1 1.2 1.3
v 5.1 1.2 1.1
v 5.1 1.4 1.3
v 5.1 1.4 1.1
v 5.2 1.2 1.6
v 5.2 1.2 1.3
v 5.2 1.3 1.6
v 5.2 1.3 1.4
v 5.2 1.4 1.4
v 5.2 1.4 1.3
v 5.3 0.7 1.9
v 5.3 0.7 1.8
v 5.3 0.9 1.9
v 5.3 0.9 1.8
v 5.3 1.3 1.5
v 5.3 1.3 1.4
v 5.3 1.4 1.5
v 5.3 1.4 1.4
v 5.3 1.4 1.3
v 5.3 1.4 0.8
v 5.3 1.5 0.8
v 5.3 1.5 0.5
v 5.3 1.6 1.3
v 5.3 1.6 0.5
v 5.3 0.4 0.3
v 5.3 0.4 0.2
v 5.3 1 0.3
v 5.3 1 0.2
v 5.6 0.4 1.4
v 5.6 0.4 1
v 5.6 0.4 0.4
v 5.6 0.4 0.3
v 5.6 0.5 1.4
v 5.6 0.5 1
v 5.6 0.9 1.8
v 5.6 0.9 1.6
v 5.6 1.1 0.5
v 5.6 1.1 0.4
v 5.6 1.2 1.8
v 5.6 1.2 1.6
v 5.6 1.4 0.8
v 5.6 1.4 0.5
v 5.6 1.5 0.5
v 5.6 1.5 0.3
v 5.6 1.6 0.8
v 5.6 1.6 0.5
v 5.7 0.4 1.9
v 5.7 0.4 1.4
v 5.7 0.4 1
v 5.7 0.4 0.4
v 5.7 0.5 1.5
v 5.7 0.5 1.4
v 5.7 0.5 1
v 5.7 0.5 0.8
v 5.7 0.8 1.6
v 5.7 0.8 1.5
v 5.7 0.8 0.9
v 5.7 0.8 0.8
v 5.7 0.9 1.9
v 5.7 0.9 1.6
v 5.7 1.1 0.5
v 5.7 1.1 0.4
v 5.7 1.3 1.5
v 5.7 1.3 0.9
v 5.7 1.4 1.5
v 5.7 1.4 1.3
v 5.7 1.4 0.8
v 5.7 1.4 0.5
v 5.7 1.6 1.3
v 5.7 1.6 0.8
v 5.8 0.5 1.5
v 5.8 0.5 0.8
v 5.8 0.8 1.6
v 5.8 0.8 1.5
v 5.8 0.8 0.9
v 5.8 0.8 0.8
v 5.8 1.3 1.6
v 5.8 1.3 0.9
v 4.8 0.4 1.9
v 4.8 0.7 1.9
v 5.3 0.7 1.9
v 5.3 0.9 1.9
v 5.7 0.4 1.9
v 5.7 0.9 1.9
v 4.6 0.4 1.8
v 4.6 1.1 1.8
v 4.8 0.4 1.8
v 4.8 0.7 1.8
v 4.8 1.1 1.8
v 4.8 1.2 1.8
v 5.3 0.7 1.8
v 5.3 0.9 1.8
v 5.6 0.9 1.8
v 5.6 1.2 1.8
v 5.2 1.2 1.6
v 5.2 1.3 1.6
v 5.6 0.9 1.6
v 5.6 1.2 1.6
v 5.7 0.8 1.6
v 5.7 0.9 1.6
v 5.8 0.8 1.6
v 5.8 1.3 1.6
v 5.3 1.3 1.5
v 5.3 1.4 1.5
v 5.7 0.5 1.5
v 5.7 0.8 1.5
v 5.7 1.3 1.5
v 5.7 1.4 1.5
v 5.8 0.5 1.5
v 5.8 0.8 1.5
v 5.2 1.3 1.4
v 5.2 1.4 1.4
v 5.3 1.3 1.4
v 5.3 1.4 1.4
v 5.1 1.2 1.3
v 5.1 1.4 1.3
v 5.2 1.2 1.3
v 5.2 1.4 1.3
v 5.3 1.4 1.3
v 5.3 1.6 1.3
v 5.7 1.4 1.3
v 5.7 1.6 1.3
v 4.4 0.4 1.2
v 4.4 0.5 1.2
v 4.6 0.4 1.2
v 4.6 0.5 1.2
v 5 1.2 1.1
v 5 1.4 1.1
v 5.1 1.2 1.1
v 5.1 1.4 1.1
v 5.6 0.4 1
v 5.6 0.5 1
v 5.7 0.4 1
v 5.7 0.5 1
v 4.9 1 0.8
v 4.9 1.5 0.8
v 5 1 0.8
v 5 1.4 0.8
v 5.3 1.4 0.8
v 5.3 1.5 0.8
v 5.6 0.4 1.4
v 5.6 0.5 1.4
v 5.7 0.4 1.4
v 5.7 0.5 1.4
v 4.8 1.1 1.1
v 4.8 1.2 1.1
v 5 1.1 1.1
v 5 1.2 1.1
v 4.6 1 0.9
v 4.6 1.1 0.9
v 5 1 0.9
v 5 1.1 0.9
v 5.7 0.8 0.9
v 5.7 1.3 0.9
v 5.8 0.8 0.9
v 5.8 1.3 0.9
v 5.6 1.4 0.8
v 5.6 1.6 0.8
v 5.7 0.5 0.8
v 5.7 0.8 0.8
v 5.7 1.4 0.8
v 5.7 1.6 0.8
v 5.8 0.5 0.8
v 5.8 0.8 0.8
v 5.3 1.5 0.5
v 5.3 1.6 0.5
v 5.6 1.1 0.5
v 5.6 1.4 0.5
v 5.6 1.5 0.5
v 5.6 1.6 0.5
v 5.7 1.1 0.5
v 5.7 1.4 0.5
v 4.4 0.4 0.4
v 4.4 0.5 0.4
v 4.6 0.5 0.4
v 4.6 1 0.4
v 4.8 0.4 0.4
v 4.8 1 0.4
v 5.6 0.4 0.4
v 5.6 1.1 0.4
v 5.7 0.4 0.4
v 5.7 1.1 0.4
v 4.9 1 0.3
v 4.9 1.5 0.3
v 5.3 0.4 0.3
v 5.3 1 0.3
v 5.6 0.4 0.3
v 5.6 1.5 0.3
v 4.8 0.4 0.2
v 4.8 1 0.2
v 5.3 0.4 0.2
v 5.3 1 0.2
v 4.8 0.4 1.9
v 5.7 0.4 1.9
v 4.6 0.4 1.8
v 4.8 0.4 1.8
v 5.6 0.4 1.4
v 5.7 0.4 1.4
v 4.4 0.4 1.2
v 4.6 0.4 1.2
v 5.6 0.4 1
v 5.7 0.4 1
v 4.4 0.4 0.4
v 4.8 0.4 0.4
v 5.6 0.4 0.4
v 5.7 0.4 0.4
v 5.3 0.4 0.3
v 5.6 0.4 0.3
v 4.8 0.4 0.2
v 5.3 0.4 0.2
v 5.7 0.5 1.5
v 5.8 0.5 1.5
v 5.6 0.5 1.4
v 5.7 0.5 1.4
v 5.6 0.5 1
v 5.7 0.5 1
v 5.7 0.5 0.8
v 5.8 0.5 0.8
v 5.7 0.8 1.6
v 5.8 0.8 1.6
v 5.7 0.8 1.5
v 5.8 0.8 1.5
v 4.4 0.5 1.2
v 4.6 0.5 1.2
v 4.4 0.5 0.4
v 4.6 0.5 0.4
v 4.8 0.7 1.9
v 5.3 0.7 1.9
v 4.8 0.7 1.8
v 5.3 0.7 1.8
v 5.7 0.8 0.9
v 5.8 0.8 0.9
v 5.7 0.8 0.8
v 5.8 0.8 0.8
v 5.3 0.9 1.9
v 5.7 0.9 1.9
v 5.3 0.9 1.8
v 5.6 0.9 1.8
v 5.6 0.9 1.6
v 5.7 0.9 1.6
v 4.6 1 0.9
v 5 1 0.9
v 4.9 1 0.8
v 5 1 0.8
v 4.6 1 0.4
v 4.8 1 0.4
v 4.9 1 0.3
v 5.3 1 0.3
v 4.8 1 0.2
v 5.3 1 0.2
v 4.6 1.1 1.8
v 4.8 1.1 1.8
v 4.8 1.1 1.1
v 5 1.1 1.1
v 4.6 1.1 0.9
v 5 1.1 0.9
v 5.6 1.1 0.5
v 5.7 1.1 0.5
v 5.6 1.1 0.4
v 5.7 1.1 0.4
v 4.8 1.2 1.8
v 5.6 1.2 1.8
v 5.2 1.2 1.6
v 5.6 1.2 1.6
v 5.1 1.2 1.3
v 5.2 1.2 1.3
v 4.8 1.2 1.1
v 5 1.2 1.1
v 5.1 1.2 1.1
v 5.2 1.3 1.6
v 5.8 1.3 1.6
v 5.3 1.3 1.5
v 5.7 1.3 1.5
v 5.2 1.3 1.4
v 5.3 1.3 1.4
v 5.7 1.3 0.9
v 5.8 1.3 0.9
v 5.3 1.4 1.5
v 5.7 1.4 1.5
v 5.2 1.4 1.4
v 5.3 1.4 1.4
v 5.1 1.4 1.3
v 5.2 1.4 1.3
v 5.3 1.4 1.3
v 5.7 1.4 1.3
v 5 1.4 1.1
v 5.1 1.4 1.1
v 5 1.4 0.8
v 5.3 1.4 0.8
v 5.6 1.4 0.8
v 5.7 1.4 0.8
v 5.6 1.4 0.5
v 5.7 1.4 0.5
v 4.9 1.5 0.8
v 5.3 1.5 0.8
v 5.3 1.5 0.5
v 5.6 1.5 0.5
v 4.9 1.5 0.3
v 5.6 1.5 0.3
v 5.3 1.6 1.3
v 5.7 1.6 1.3
v 5.6 1.6 0.8
v 5.7 1.6 0.8
v 5.3 1.6 0.5
v 5.6 1.6 0.5

# faces
f 3/1/1 2/1/1 1/1/1
f 4/1/1 2/1/1 3/1/1
f 7/1/1 6/1/1 5/1/1
f 9/1/1 8/1/1 7/1/1
f 10/1/1 8/1/1 9/1/1
f 11/1/1 7/1/1 5/1/1
f 11/1/1 9/1/1 7/1/1
f 12/1/1 9/1/1 11/1/1
f 17/1/1 14/1/1 13/1/1
f 18/1/1 14/1/1 17/1/1
f 19/1/1 16/1/1 15/1/1
f 20/1/1 16/1/1 19/1/1
f 23/1/1 22/1/1 21/1/1
f 24/1/1 22/1/1 23/1/1
f 27/1/1 26/1/1 25/1/1
f 28/1/1 26/1/1 27/1/1
f 32/1/1 30/1/1 29/1/1
f 33/1/1 32/1/1 31/1/1
f 34/1/1 32/1/1 33/1/1
f 35/1/1 30/1/1 32/1/1
f 35/1/1 32/1/1 34/1/1
f 38/1/1 37/1/1 36/1/1
f 39/1/1 37/1/1 38/1/1
f 42/1/1 41/1/1 40/1/1
f 43/1/1 41/1/1 42/1/1
f 44/1/1 41/1/1 43/1/1
f 45/1/1 41/1/1 44/1/1
f 48/1/1 47/1/1 46/1/1
f 49/1/1 47/1/1 48/1/1
f 52/1/1 51/1/1 50/1/1
f 53/1/1 51/1/1 52/1/1
f 56/1/1 55/1/1 54/1/1
f 58/1/1 56/1/1 54/1/1
f 58/1/1 57/1/1 56/1/1
f 59/1/1 57/1/1 58/1/1
f 60/1/2 61/1/2 62/1/2
f 62/1/2 61/1/2 63/1/2
f 64/1/2 65/1/2 68/1/2
f 68/1/2 65/1/2 69/1/2
f 66/1/2 67/1/2 73/1/2
f 70/1/2 71/1/2 74/1/2
f 74/1/2 71/1/2 75/1/2
f 72/1/2 73/1/2 77/1/2
f 77/1/2 73/1/2 78/1/2
f 76/1/2 77/1/2 78/1/2
f 73/1/2 67/1/2 79/1/2
f 78/1/2 73/1/2 79/1/2
f 76/1/2 78/1/2 80/1/2
f 80/1/2 78/1/2 81/1/2
f 82/1/2 83/1/2 86/1/2
f 86/1/2 83/1/2 87/1/2
f 84/1/2 85/1/2 88/1/2
f 88/1/2 85/1/2 89/1/2
f 82/1/2 86/1/2 90/1/2
f 90/1/2 86/1/2 91/1/2
f 89/1/2 85/1/2 93/1/2
f 82/1/2 90/1/2 94/1/2
f 94/1/2 90/1/2 95/1/2
f 92/1/2 93/1/2 96/1/2
f 93/1/2 85/1/2 96/1/2
f 96/1/2 85/1/2 97/1/2
f 92/1/2 96/1/2 99/1/2
f 98/1/2 99/1/2 100/1/2
f 100/1/2 99/1/2 101/1/2
f 99/1/2 96/1/2 102/1/2
f 101/1/2 99/1/2 102/1/2
f 102/1/2 96/1/2 103/1/2
f 101/1/2 102/1/2 104/1/2
f 104/1/2 102/1/2 105/1/2
f 106/1/2 107/1/2 109/1/2
f 109/1/2 107/1/2 110/1/2
f 110/1/2 107/1/2 111/1/2
f 108/1/2 109/1/2 112/1/2
f 109/1/2 110/1/2 112/1/2
f 112/1/2 110/1/2 113/1/2
f 116/1/3 115/1/3 114/1/3
f 118/1/3 116/1/3 114/1/3
f 118/1/3 117/1/3 116/1/3
f 119/1/3 117/1/3 118/1/3
f 122/1/3 121/1/3 120/1/3
f 123/1/3 121/1/3 122/1/3
f 124/1/3 121/1/3 123/1/3
f 126/1/3 125/1/3 124/1/3
f 126/1/3 124/1/3 123/1/3
f 127/1/3 125/1/3 126/1/3
f 128/1/3 125/1/3 127/1/3
f 129/1/3 125/1/3 128/1/3
f 133/1/3 131/1/3 130/1/3
f 135/1/3 133/1/3 132/1/3
f 136/1/3 135/1/3 134/1/3
f 137/1/3 131/1/3 133/1/3
f 137/1/3 135/1/3 136/1/3
f 137/1/3 133/1/3 135/1/3
f 142/1/3 139/1/3 138/1/3
f 143/1/3 139/1/3 142/1/3
f 144/1/3 141/1/3 140/1/3
f 145/1/3 141/1/3 144/1/3
f 148/1/3 147/1/3 146/1/3
f 149/1/3 147/1/3 148/1/3
f 152/1/3 151/1/3 150/1/3
f 153/1/3 151/1/3 152/1/3
f 156/1/3 155/1/3 154/1/3
f 157/1/3 155/1/3 156/1/3
f 160/1/3 159/1/3 158/1/3
f 161/1/3 159/1/3 160/1/3
f 164/1/3 163/1/3 162/1/3
f 165/1/3 163/1/3 164/1/3
f 168/1/3 167/1/3 166/1/3
f 169/1/3 167/1/3 168/1/3
f 172/1/3 171/1/3 170/1/3
f 173/1/3 171/1/3 172/1/3
f 174/1/3 171/1/3 173/1/3
f 175/1/3 171/1/3 174/1/3
f 176/1/4 177/1/4 178/1/4
f 178/1/4 177/1/4 179/1/4
f 180/1/4 181/1/4 182/1/4
f 182/1/4 181/1/4 183/1/4
f 184/1/4 185/1/4 186/1/4
f 186/1/4 185/1/4 187/1/4
f 188/1/4 189/1/4 190/1/4
f 190/1/4 189/1/4 191/1/4
f 192/1/4 193/1/4 196/1/4
f 196/1/4 193/1/4 197/1/4
f 194/1/4 195/1/4 198/1/4
f 198/1/4 195/1/4 199/1/4
f 200/1/4 201/1/4 204/1/4
f 204/1/4 201/1/4 205/1/4
f 202/1/4 203/1/4 206/1/4
f 206/1/4 203/1/4 207/1/4
f 208/1/4 209/1/4 210/1/4
f 208/1/4 210/1/4 212/1/4
f 210/1/4 211/1/4 212/1/4
f 212/1/4 211/1/4 213/1/4
f 214/1/4 215/1/4 216/1/4
f 216/1/4 215/1/4 217/1/4
f 218/1/4 219/1/4 221/1/4
f 220/1/4 221/1/4 222/1/4
f 221/1/4 219/1/4 223/1/4
f 222/1/4 221/1/4 223/1/4
f 224/1/4 225/1/4 226/1/4
f 226/1/4 225/1/4 227/1/4
f 231/1/5 229/1/5 228/1/5
f 232/1/5 229/1/5 231/1/5
f 232/1/5 231/1/5 230/1/5
f 233/1/5 229/1/5 232/1/5
f 235/1/5 232/1/5 230/1/5
f 236/1/5 232/1/5 235/1/5
f 236/1/5 235/1/5 234/1/5
f 238/1/5 236/1/5 234/1/5
f 238/1/5 237/1/5 236/1/5
f 239/1/5 237/1/5 238/1/5
f 240/1/5 237/1/5 239/1/5
f 241/1/5 237/1/5 240/1/5
f 242/1/5 240/1/5 239/1/5
f 243/1/5 240/1/5 242/1/5
f 244/1/5 242/1/5 239/1/5
f 245/1/5 242/1/5 244/1/5
f 249/1/5 247/1/5 246/1/5
f 250/1/5 249/1/5 248/1/5
f 251/1/5 247/1/5 249/1/5
f 251/1/5 249/1/5 250/1/5
f 252/1/5 247/1/5 251/1/5
f 253/1/5 247/1/5 252/1/5
f 256/1/5 255/1/5 254/1/5
f 257/1/5 255/1/5 256/1/5
f 258/1/6 259/1/6 260/1/6
f 260/1/6 259/1/6 261/1/6
f 262/1/6 263/1/6 264/1/6
f 264/1/6 263/1/6 265/1/6
f 266/1/6 267/1/6 268/1/6
f 268/1/6 267/1/6 269/1/6
f 270/1/6 271/1/6 272/1/6
f 272/1/6 271/1/6 273/1/6
f 273/1/6 271/1/6 274/1/6
f 274/1/6 271/1/6 275/1/6
f 276/1/6 277/1/6 278/1/6
f 278/1/6 277/1/6 279/1/6
f 276/1/6 278/1/6 280/1/6
f 280/1/6 278/1/6 281/1/6
f 281/1/6 278/1/6 282/1/6
f 281/1/6 282/1/6 284/1/6
f 282/1/6 283/1/6 284/1/6
f 284/1/6 283/1/6 285/1/6
f 286/1/6 287/1/6 288/1/6
f 286/1/6 288/1/6 290/1/6
f 288/1/6 289/1/6 290/1/6
f 290/1/6 289/1/6 291/1/6
f 292/1/6 293/1/6 294/1/6
f 294/1/6 293/1/6 295/1/6
f 296/1/6 297/1/6 298/1/6
f 298/1/6 297/1/6 299/1/6
f 296/1/6 298/1/6 300/1/6
f 300/1/6 298/1/6 301/1/6
f 296/1/6 300/1/6 302/1/6
f 302/1/6 300/1/6 303/1/6
f 303/1/6 300/1/6 304/1/6
f 305/1/6 306/1/6 307/1/6
f 307/1/6 306/1/6 308/1/6
f 305/1/6 307/1/6 309/1/6
f 309/1/6 307/1/6 310/1/6
f 308/1/6 306/1/6 311/1/6
f 311/1/6 306/1/6 312/1/6
f 313/1/6 314/1/6 316/1/6
f 315/1/6 316/1/6 318/1/6
f 316/1/6 314/1/6 319/1/6
f 318/1/6 316/1/6 319/1/6
f 319/1/6 314/1/6 320/1/6
f 317/1/6 318/1/6 322/1/6
f 318/1/6 319/1/6 322/1/6
f 321/1/6 322/1/6 323/1/6
f 322/1/6 319/1/6 324/1/6
f 323/1/6 322/1/6 324/1/6
f 325/1/6 326/1/6 327/1/6
f 327/1/6 326/1/6 328/1/6
f 329/1/6 330/1/6 331/1/6
f 329/1/6 331/1/6 333/1/6
f 331/1/6 332/1/6 333/1/6
f 333/1/6 332/1/6 334/1/6
f 335/1/6 336/1/6 337/1/6
f 337/1/6 336/1/6 338/1/6
f 335/1/6 337/1/6 339/1/6
f 339/1/6 337/1/6 340/1/6
