# MagicaVoxel @ Ephtracy

# group
o 

# material
mtllib rock_02.mtl
usemtl palette

# normals
vn -1 0 0
vn 1 0 0
vn 0 0 1
vn 0 0 -1
vn 0 -1 0
vn 0 1 0

# texcoords
vt 0.970703 0.5

# verts
v 4.4 0.4 0.6
v 4.4 0.4 0.3
v 4.4 0.8 0.3
v 4.4 0.8 0.2
v 4.4 0.9 0.6
v 4.4 0.9 0.2
v 4.5 0.4 0.7
v 4.5 0.4 0.6
v 4.5 0.6 0.8
v 4.5 0.6 0.7
v 4.5 0.9 0.6
v 4.5 0.9 0.2
v 4.5 1 0.8
v 4.5 1 0.6
v 4.5 1.4 0.6
v 4.5 1.4 0.2
v 4.6 0.4 1.8
v 4.6 0.4 1.6
v 4.6 0.7 1.6
v 4.6 0.7 1.5
v 4.6 1 1.8
v 4.6 1 1.5
v 4.7 0.4 1.9
v 4.7 0.4 1.8
v 4.7 0.4 1.6
v 4.7 0.4 0.7
v 4.7 0.6 1.9
v 4.7 0.6 1.8
v 4.7 0.6 0.8
v 4.7 0.6 0.7
v 4.7 0.7 1.6
v 4.7 0.7 1.5
v 4.7 0.8 1.4
v 4.7 0.8 0.8
v 4.7 1 1.5
v 4.7 1 1.4
v 4.8 0.4 0.3
v 4.8 0.4 0.2
v 4.8 0.6 0.3
v 4.8 0.6 0.2
v 4.8 1 0.7
v 4.8 1 0.6
v 4.8 1.3 0.7
v 4.8 1.3 0.6
v 4.9 1 1.8
v 4.9 1 1.4
v 4.9 1.1 1.8
v 4.9 1.1 1.4
v 5 0.6 0.3
v 5 0.6 0.2
v 5 0.8 1.4
v 5 0.8 0.8
v 5 0.8 0.3
v 5 0.8 0.2
v 5 1 0.8
v 5 1 0.7
v 5 1.1 1.4
v 5 1.2 1.4
v 5 1.2 0.7
v 5.1 1.2 1.4
v 5.1 1.2 0.7
v 5.1 1.3 0.7
v 5.1 1.3 0.4
v 5.1 1.4 1.4
v 5.1 1.4 0.7
v 5.1 1.5 0.7
v 5.1 1.5 0.4
v 5.2 0.6 1.9
v 5.2 0.6 1.8
v 5.2 1.1 1.9
v 5.2 1.1 1.8
v 5.6 1.4 1.4
v 5.6 1.4 0.7
v 5.6 1.5 1.4
v 5.6 1.5 0.7
v 5 0.9 0.4
v 5 0.9 0.2
v 5 1.3 0.6
v 5 1.3 0.4
v 5 1.4 0.6
v 5 1.4 0.2
v 5.7 0.4 1.9
v 5.7 0.4 1.3
v 5.7 0.4 0.8
v 5.7 0.4 0.2
v 5.7 0.9 0.4
v 5.7 0.9 0.2
v 5.7 1.1 1.9
v 5.7 1.1 1.4
v 5.7 1.1 1.3
v 5.7 1.5 0.8
v 5.7 1.5 0.4
v 5.8 0.4 1.3
v 5.8 0.4 0.8
v 5.8 1.1 1.4
v 5.8 1.1 1.3
v 5.8 1.5 1.4
v 5.8 1.5 0.8
v 4.7 0.4 1.9
v 4.7 0.6 1.9
v 5.2 0.6 1.9
v 5.2 1.1 1.9
v 5.7 0.4 1.9
v 5.7 1.1 1.9
v 4.6 0.4 1.8
v 4.6 1 1.8
v 4.7 0.4 1.8
v 4.7 0.6 1.8
v 4.9 1 1.8
v 4.9 1.1 1.8
v 5.2 0.6 1.8
v 5.2 1.1 1.8
v 5 1.1 1.4
v 5 1.2 1.4
v 5.1 1.2 1.4
v 5.1 1.4 1.4
v 5.6 1.4 1.4
v 5.6 1.5 1.4
v 5.7 1.1 1.4
v 5.8 1.1 1.4
v 5.8 1.5 1.4
v 5.7 0.4 1.3
v 5.7 1.1 1.3
v 5.8 0.4 1.3
v 5.8 1.1 1.3
v 4.5 0.6 0.8
v 4.5 1 0.8
v 4.7 0.6 0.8
v 4.7 0.8 0.8
v 5 0.8 0.8
v 5 1 0.8
v 4.5 0.4 0.7
v 4.5 0.6 0.7
v 4.7 0.4 0.7
v 4.7 0.6 0.7
v 4.8 1 0.7
v 4.8 1.3 0.7
v 5 1 0.7
v 5 1.2 0.7
v 5.1 1.2 0.7
v 5.1 1.3 0.7
v 5.1 1.4 0.7
v 5.1 1.5 0.7
v 5.6 1.4 0.7
v 5.6 1.5 0.7
v 4.4 0.4 0.6
v 4.4 0.9 0.6
v 4.5 0.4 0.6
v 4.5 0.9 0.6
v 4.5 1 0.6
v 4.5 1.4 0.6
v 4.8 1 0.6
v 4.8 1.3 0.6
v 5 1.3 0.6
v 5 1.4 0.6
v 4.6 0.4 1.6
v 4.6 0.7 1.6
v 4.7 0.4 1.6
v 4.7 0.7 1.6
v 4.6 0.7 1.5
v 4.6 1 1.5
v 4.7 0.7 1.5
v 4.7 1 1.5
v 4.7 0.8 1.4
v 4.7 1 1.4
v 4.9 1 1.4
v 4.9 1.1 1.4
v 5 0.8 1.4
v 5 1.1 1.4
v 5.7 0.4 0.8
v 5.7 1.5 0.8
v 5.8 0.4 0.8
v 5.8 1.5 0.8
v 5 0.9 0.4
v 5 1.3 0.4
v 5.1 1.3 0.4
v 5.1 1.5 0.4
v 5.7 0.9 0.4
v 5.7 1.5 0.4
v 4.4 0.4 0.3
v 4.4 0.8 0.3
v 4.8 0.4 0.3
v 4.8 0.6 0.3
v 5 0.6 0.3
v 5 0.8 0.3
v 4.4 0.8 0.2
v 4.4 0.9 0.2
v 4.5 0.9 0.2
v 4.5 1.4 0.2
v 4.8 0.4 0.2
v 4.8 0.6 0.2
v 5 0.6 0.2
v 5 0.8 0.2
v 5 0.9 0.2
v 5 1.4 0.2
v 5.7 0.4 0.2
v 5.7 0.9 0.2
v 4.7 0.4 1.9
v 5.7 0.4 1.9
v 4.6 0.4 1.8
v 4.7 0.4 1.8
v 4.6 0.4 1.6
v 4.7 0.4 1.6
v 5.7 0.4 1.3
v 5.8 0.4 1.3
v 5.7 0.4 0.8
v 5.8 0.4 0.8
v 4.5 0.4 0.7
v 4.7 0.4 0.7
v 4.4 0.4 0.6
v 4.5 0.4 0.6
v 4.4 0.4 0.3
v 4.8 0.4 0.3
v 4.8 0.4 0.2
v 5.7 0.4 0.2
v 4.5 0.6 0.8
v 4.7 0.6 0.8
v 4.5 0.6 0.7
v 4.7 0.6 0.7
v 4.6 0.7 1.6
v 4.7 0.7 1.6
v 4.6 0.7 1.5
v 4.7 0.7 1.5
v 4.4 0.8 0.3
v 5 0.8 0.3
v 4.4 0.8 0.2
v 5 0.8 0.2
v 5.7 1.1 1.4
v 5.8 1.1 1.4
v 5.7 1.1 1.3
v 5.8 1.1 1.3
v 4.7 0.6 1.9
v 5.2 0.6 1.9
v 4.7 0.6 1.8
v 5.2 0.6 1.8
v 4.8 0.6 0.3
v 5 0.6 0.3
v 4.8 0.6 0.2
v 5 0.6 0.2
v 4.7 0.8 1.4
v 5 0.8 1.4
v 4.7 0.8 0.8
v 5 0.8 0.8
v 4.4 0.9 0.6
v 4.5 0.9 0.6
v 5 0.9 0.4
v 5.7 0.9 0.4
v 4.4 0.9 0.2
v 4.5 0.9 0.2
v 5 0.9 0.2
v 5.7 0.9 0.2
v 4.6 1 1.8
v 4.9 1 1.8
v 4.6 1 1.5
v 4.7 1 1.5
v 4.7 1 1.4
v 4.9 1 1.4
v 4.5 1 0.8
v 5 1 0.8
v 4.8 1 0.7
v 5 1 0.7
v 4.5 1 0.6
v 4.8 1 0.6
v 5.2 1.1 1.9
v 5.7 1.1 1.9
v 4.9 1.1 1.8
v 5.2 1.1 1.8
v 4.9 1.1 1.4
v 5 1.1 1.4
v 5.7 1.1 1.4
v 5 1.2 1.4
v 5.1 1.2 1.4
v 5 1.2 0.7
v 5.1 1.2 0.7
v 4.8 1.3 0.7
v 5.1 1.3 0.7
v 4.8 1.3 0.6
v 5 1.3 0.6
v 5 1.3 0.4
v 5.1 1.3 0.4
v 5.1 1.4 1.4
v 5.6 1.4 1.4
v 5.1 1.4 0.7
v 5.6 1.4 0.7
v 4.5 1.4 0.6
v 5 1.4 0.6
v 4.5 1.4 0.2
v 5 1.4 0.2
v 5.6 1.5 1.4
v 5.8 1.5 1.4
v 5.7 1.5 0.8
v 5.8 1.5 0.8
v 5.1 1.5 0.7
v 5.6 1.5 0.7
v 5.1 1.5 0.4
v 5.7 1.5 0.4

# faces
f 3/1/1 2/1/1 1/1/1
f 5/1/1 3/1/1 1/1/1
f 5/1/1 4/1/1 3/1/1
f 6/1/1 4/1/1 5/1/1
f 10/1/1 8/1/1 7/1/1
f 11/1/1 8/1/1 10/1/1
f 11/1/1 10/1/1 9/1/1
f 13/1/1 11/1/1 9/1/1
f 13/1/1 12/1/1 11/1/1
f 14/1/1 12/1/1 13/1/1
f 15/1/1 12/1/1 14/1/1
f 16/1/1 12/1/1 15/1/1
f 19/1/1 18/1/1 17/1/1
f 21/1/1 19/1/1 17/1/1
f 21/1/1 20/1/1 19/1/1
f 22/1/1 20/1/1 21/1/1
f 27/1/1 24/1/1 23/1/1
f 28/1/1 24/1/1 27/1/1
f 29/1/1 26/1/1 25/1/1
f 30/1/1 26/1/1 29/1/1
f 31/1/1 29/1/1 25/1/1
f 32/1/1 29/1/1 31/1/1
f 33/1/1 29/1/1 32/1/1
f 34/1/1 29/1/1 33/1/1
f 35/1/1 33/1/1 32/1/1
f 36/1/1 33/1/1 35/1/1
f 39/1/1 38/1/1 37/1/1
f 40/1/1 38/1/1 39/1/1
f 43/1/1 42/1/1 41/1/1
f 44/1/1 42/1/1 43/1/1
f 47/1/1 46/1/1 45/1/1
f 48/1/1 46/1/1 47/1/1
f 53/1/1 50/1/1 49/1/1
f 54/1/1 50/1/1 53/1/1
f 55/1/1 52/1/1 51/1/1
f 57/1/1 55/1/1 51/1/1
f 57/1/1 56/1/1 55/1/1
f 58/1/1 56/1/1 57/1/1
f 59/1/1 56/1/1 58/1/1
f 62/1/1 61/1/1 60/1/1
f 64/1/1 62/1/1 60/1/1
f 64/1/1 63/1/1 62/1/1
f 65/1/1 63/1/1 64/1/1
f 66/1/1 63/1/1 65/1/1
f 67/1/1 63/1/1 66/1/1
f 70/1/1 69/1/1 68/1/1
f 71/1/1 69/1/1 70/1/1
f 74/1/1 73/1/1 72/1/1
f 75/1/1 73/1/1 74/1/1
f 76/1/2 77/1/2 79/1/2
f 78/1/2 79/1/2 80/1/2
f 79/1/2 77/1/2 81/1/2
f 80/1/2 79/1/2 81/1/2
f 84/1/2 85/1/2 86/1/2
f 86/1/2 85/1/2 87/1/2
f 82/1/2 83/1/2 88/1/2
f 88/1/2 83/1/2 89/1/2
f 89/1/2 83/1/2 90/1/2
f 84/1/2 86/1/2 91/1/2
f 91/1/2 86/1/2 92/1/2
f 93/1/2 94/1/2 96/1/2
f 95/1/2 96/1/2 97/1/2
f 96/1/2 94/1/2 98/1/2
f 97/1/2 96/1/2 98/1/2
f 101/1/3 100/1/3 99/1/3
f 103/1/3 101/1/3 99/1/3
f 103/1/3 102/1/3 101/1/3
f 104/1/3 102/1/3 103/1/3
f 107/1/3 106/1/3 105/1/3
f 108/1/3 106/1/3 107/1/3
f 109/1/3 106/1/3 108/1/3
f 111/1/3 109/1/3 108/1/3
f 111/1/3 110/1/3 109/1/3
f 112/1/3 110/1/3 111/1/3
f 115/1/3 114/1/3 113/1/3
f 117/1/3 116/1/3 115/1/3
f 119/1/3 115/1/3 113/1/3
f 119/1/3 118/1/3 117/1/3
f 119/1/3 117/1/3 115/1/3
f 120/1/3 118/1/3 119/1/3
f 121/1/3 118/1/3 120/1/3
f 124/1/3 123/1/3 122/1/3
f 125/1/3 123/1/3 124/1/3
f 128/1/3 127/1/3 126/1/3
f 129/1/3 127/1/3 128/1/3
f 130/1/3 127/1/3 129/1/3
f 131/1/3 127/1/3 130/1/3
f 134/1/3 133/1/3 132/1/3
f 135/1/3 133/1/3 134/1/3
f 138/1/3 137/1/3 136/1/3
f 139/1/3 137/1/3 138/1/3
f 140/1/3 137/1/3 139/1/3
f 141/1/3 137/1/3 140/1/3
f 144/1/3 143/1/3 142/1/3
f 145/1/3 143/1/3 144/1/3
f 148/1/3 147/1/3 146/1/3
f 149/1/3 147/1/3 148/1/3
f 152/1/3 151/1/3 150/1/3
f 153/1/3 151/1/3 152/1/3
f 154/1/3 151/1/3 153/1/3
f 155/1/3 151/1/3 154/1/3
f 156/1/4 157/1/4 158/1/4
f 158/1/4 157/1/4 159/1/4
f 160/1/4 161/1/4 162/1/4
f 162/1/4 161/1/4 163/1/4
f 164/1/4 165/1/4 166/1/4
f 164/1/4 166/1/4 168/1/4
f 166/1/4 167/1/4 168/1/4
f 168/1/4 167/1/4 169/1/4
f 170/1/4 171/1/4 172/1/4
f 172/1/4 171/1/4 173/1/4
f 174/1/4 175/1/4 176/1/4
f 174/1/4 176/1/4 178/1/4
f 176/1/4 177/1/4 178/1/4
f 178/1/4 177/1/4 179/1/4
f 180/1/4 181/1/4 182/1/4
f 182/1/4 181/1/4 183/1/4
f 183/1/4 181/1/4 184/1/4
f 184/1/4 181/1/4 185/1/4
f 186/1/4 187/1/4 188/1/4
f 190/1/4 191/1/4 192/1/4
f 186/1/4 188/1/4 193/1/4
f 188/1/4 189/1/4 193/1/4
f 193/1/4 189/1/4 194/1/4
f 194/1/4 189/1/4 195/1/4
f 190/1/4 192/1/4 196/1/4
f 192/1/4 193/1/4 196/1/4
f 193/1/4 194/1/4 196/1/4
f 196/1/4 194/1/4 197/1/4
f 201/1/5 199/1/5 198/1/5
f 202/1/5 201/1/5 200/1/5
f 203/1/5 199/1/5 201/1/5
f 203/1/5 201/1/5 202/1/5
f 204/1/5 199/1/5 203/1/5
f 206/1/5 204/1/5 203/1/5
f 206/1/5 205/1/5 204/1/5
f 207/1/5 205/1/5 206/1/5
f 209/1/5 206/1/5 203/1/5
f 211/1/5 209/1/5 208/1/5
f 212/1/5 211/1/5 210/1/5
f 213/1/5 206/1/5 209/1/5
f 213/1/5 211/1/5 212/1/5
f 213/1/5 209/1/5 211/1/5
f 214/1/5 206/1/5 213/1/5
f 215/1/5 206/1/5 214/1/5
f 218/1/5 217/1/5 216/1/5
f 219/1/5 217/1/5 218/1/5
f 222/1/5 221/1/5 220/1/5
f 223/1/5 221/1/5 222/1/5
f 226/1/5 225/1/5 224/1/5
f 227/1/5 225/1/5 226/1/5
f 230/1/5 229/1/5 228/1/5
f 231/1/5 229/1/5 230/1/5
f 232/1/6 233/1/6 234/1/6
f 234/1/6 233/1/6 235/1/6
f 236/1/6 237/1/6 238/1/6
f 238/1/6 237/1/6 239/1/6
f 240/1/6 241/1/6 242/1/6
f 242/1/6 241/1/6 243/1/6
f 244/1/6 245/1/6 248/1/6
f 248/1/6 245/1/6 249/1/6
f 246/1/6 247/1/6 250/1/6
f 250/1/6 247/1/6 251/1/6
f 252/1/6 253/1/6 254/1/6
f 254/1/6 253/1/6 255/1/6
f 255/1/6 253/1/6 256/1/6
f 256/1/6 253/1/6 257/1/6
f 258/1/6 259/1/6 260/1/6
f 260/1/6 259/1/6 261/1/6
f 258/1/6 260/1/6 262/1/6
f 262/1/6 260/1/6 263/1/6
f 264/1/6 265/1/6 267/1/6
f 266/1/6 267/1/6 268/1/6
f 268/1/6 267/1/6 269/1/6
f 267/1/6 265/1/6 270/1/6
f 269/1/6 267/1/6 270/1/6
f 271/1/6 272/1/6 273/1/6
f 273/1/6 272/1/6 274/1/6
f 275/1/6 276/1/6 277/1/6
f 277/1/6 276/1/6 278/1/6
f 278/1/6 276/1/6 279/1/6
f 279/1/6 276/1/6 280/1/6
f 281/1/6 282/1/6 283/1/6
f 283/1/6 282/1/6 284/1/6
f 285/1/6 286/1/6 287/1/6
f 287/1/6 286/1/6 288/1/6
f 289/1/6 290/1/6 291/1/6
f 291/1/6 290/1/6 292/1/6
f 289/1/6 291/1/6 294/1/6
f 293/1/6 294/1/6 295/1/6
f 294/1/6 291/1/6 296/1/6
f 295/1/6 294/1/6 296/1/6
